<?xml version="1.0" encoding="utf-8"?>
<!-- Generator: Adobe Illustrator 19.1.0, SVG Export Plug-In . SVG Version: 6.00 Build 0)  -->
<svg version="1.1" id="Layer_1" xmlns="http://www.w3.org/2000/svg" xmlns:xlink="http://www.w3.org/1999/xlink" x="0px" y="0px"
	 viewBox="0 0 612 792" style="enable-background:new 0 0 612 792;" xml:space="preserve">
<style type="text/css">
	.st0{fill:#00AEEF;}
	.st1{fill:#F7941E;}
	.st2{fill:#BE1E2D;}
	.st3{fill:#00A651;}
	.st4{fill:#ED1C24;}
	.st5{fill:#754C29;}
	.st6{fill:#92278F;stroke:#000000;stroke-miterlimit:10;}
	.st7{fill:#F9ED32;}
	.st8{fill:#2E3192;}
	.st9{fill:#FFF200;}
	.st10{fill:#EF4136;}
	.st11{fill:#92278F;}
	.st12{fill:#EC008C;}
	.st13{fill:#F15A29;stroke:#000000;stroke-miterlimit:10;}
	.st14{fill:#006838;stroke:#000000;stroke-miterlimit:10;}
	.st15{fill:#58595B;}
	.st16{fill:#8DC63F;}
	.st17{fill:#F7941E;stroke:#000000;stroke-miterlimit:10;}
	.st18{fill:#603913;}
	.st19{fill:#262262;}
	.st20{fill:#A97C50;}
	.st21{fill:#C49A6C;}
	.st22{fill:#C2B59B;}
	.st23{fill:#1C75BC;}
	.st24{fill:#D7DF23;}
	.st25{fill:#808285;}
	.st26{fill:#2B3990;}
	.st27{fill:#594A42;}
	.st28{fill:#27AAE1;}
	.st29{fill:#9E1F63;}
	.st30{fill:#8DC63F;stroke:#000000;stroke-miterlimit:10;}
	.st31{fill:#662D91;}
	.st32{fill:#FFFFFF;}
</style>
<path d="M26,153.8c1.4,0.8,2.6,0.1,3.5-2.4c0.6-1.8,2.3-3.3,3.8-5.4c-1.3,0.5-2.2,0.8-3.2,1.1c-0.1-0.1-0.3-0.4-0.2-0.5
	c1.3-5.1,2.4-10.1,0.5-15.4c-0.3-0.7-0.2-1.8,0.2-2.4c6.4-10.7,8-28.1,3.5-40c-1-2.8-0.5-6.7-5.4-7c0.6-4.2,1-8.3,2-12.3
	c0.9-3.6,2.5-7.1,4-10.9c74.5,1.8,149,3.5,224.1,5.3c0,1.4,0,2.7,0,4c-0.1,52.9,0,105.9-0.2,158.8c-0.1,17.1-0.8,34.1-1.1,51.2
	c0,1.6,0.9,3.8,2.1,4.9c79.8,73.2,159.7,146.4,239.6,219.5c20.1,18.4,40.3,36.5,60.4,54.9c1.2,1.1,1.9,3.1,2.1,4.8
	c0.6,5.2,2.5,9.6,6.2,13.5c2.8,2.9,4.8,6.6,6.8,10.1c1.6,2.7,2.5,5.8,3.9,8.6c1.8,3.7,4.5,6.5,8.6,8c1.6,0.6,3.1,1.4,4.4,2.4
	c3,2.3,3.6,5.6,1.5,8.7c-4.1,6-9,11.3-15.8,14.2c-4.4,1.9-4.4,6-4.5,9.5c-0.1,4.4,0.9,8.8,1.4,13.2c0.1,1.3,0.3,2.8-0.1,4
	c-2.1,6.5-3.9,13.3-9,18.4c-2.5,2.5-2.5,6.6-0.8,9.7c0.9,1.7,1.3,3.8,1.3,5.7c0.1,3.4-0.3,6.7-0.5,10.4c2.6,0.2,4.6,0.5,6.6,0.5
	c2.7-0.1,3.9,1,5,3.6c4,8.9-1.5,15.2-5.5,21.9c-0.4,0.7-1.9,0.8-2.9,1c-17.9,2.4-35.8,4.6-53.7,7.1c-23.3,3.2-46.6,6.5-69.9,9.8
	c-9.3,1.3-18.7,2.8-28.3,4.3c-0.3-2.9-0.5-5.4-0.8-8.4c1.1,0.3,2,0.5,3,0.8c1.1-2.3-3.7-6.9-8.7-8.4c-0.4,1.5-0.8,2.9-1.2,4.4
	c-0.3,0-0.7-0.1-1-0.1c0.3-2.7,0.5-5.4,0.8-8.1c-1.6-0.2-3-2.4-1.4-4.5c4.3-5.8,0.8-10.8-1.6-15.4c-5.5-10.2-13.2-18.8-22.8-25.5
	c-2.5-1.8-4.5-4.4-6.9-6.4c-1.4-1.2-3.3-1.8-4.9-2.7c-0.2,0.3-0.3,0.6-0.5,0.9c-3.5-3.5-6.9-7.1-10.5-10.4c-1.8-1.7-7.2-1.1-9.8,1.2
	c-1.7,1.5-2.8,1.5-5,0.4c-4.2-2.2-6.9-4.1-3.3-8.9c0.4-0.5-0.2-2.1-0.7-2.9c-1.3-2.3-3-4.5-4.2-6.9c-1.2-2.3-2.8-3.6-5.5-3.4
	c-2.9,0.3-5.8,0.8-8.6,1c-2.7,0.2-5.5,2.3-8.3-0.2c-0.4-0.4-1.7,0.3-2.2-0.5c-5.7-2.5-11.5-5-17.6-7.7c-0.8-9.9-7.8-15.1-16.8-18.4
	c-1.1-0.4-2.4-0.6-3.5-0.6c-4.2,0.1-8.2,0.6-12.5-0.2c-3.4-0.6-6.6-1.1-10-2.1c-6.4-1.9-13.2-3-20-0.7c-4.7,1.6-6.7,0.6-9.4-3.6
	c-0.5-0.7-1-1.5-1.7-1.9c-2.9-1.5-5.9-2.8-9.2-4.2c0.8-1.1,1.7-1.8,2-2.8c0.7-2.2,2.4-4.3,0.1-6.8c-0.7-0.7-0.4-3.1,0.3-4.1
	c1.8-2.5,1.8-4.5-0.3-6.7c-0.8-0.8-1.5-2.1-1.4-3.1c0.3-4.1,1-8.2,1.5-12.5c-0.4-1.3-0.6-3.1-1.4-4.6c-0.6-1-2-1.6-3.2-2
	c-3.6-1.3-7.3-2.5-11-3.7c1.2-2.9,2.1-4.8,2.7-6.8c1.8-5.3,0.3-7.9-5.1-8.5c-2.7-0.3-4.4-1.3-5.5-3.9c-1-2.3-2.3-4.6-3.7-6.7
	c-1.9-2.9-4.3-5-8.3-3.2c-1.2-6.9-3.8-12.6-9.1-17.1c-1.8-1.6-3-4.4-3.5-6.9c-0.9-4.1-0.6-4.2-4.9-4.6c-0.1-1,0.1-2.2-0.4-3
	c-2-3.1-3.9-6.5-6.5-9.1c-2-2.1-5-3.3-7.6-4.7c-2.7-1.4-3.7-3.2-2.6-6.2c0.3-0.9,0.2-2.1-0.1-3c-0.7-2.4-1.7-4.7-2.5-7.1
	c-0.3-0.8,0-1.9-0.5-2.5c-4.5-4.7-0.1-8.1,1.5-11.9c0.6-1.4,1.1-2.8,1.7-4.3c1.4,1.3,2.5,2.3,3.7,3.4c0.3-0.1,0.6-0.2,0.9-0.4
	c0-3.9,1.5-7.7-0.7-11.6c-0.9-1.7-1.3-3.7-1.9-5.5c-1-2.6-2.6-3.3-5.1-1.9c-1.7,0.9-3.5,1.7-4.6,2.3c-3.5-2.1-6.5-4.1-9.7-5.7
	c-4.9-2.4-9.2-5.1-9.1-11.4c0-1-1-1.9-1.3-2.9c-0.5-1.9-1.2-3.9-1.2-5.8c-0.1-3.4,0.7-6.8,0.4-10.1c-0.2-2.3-1.4-4.7-2.8-6.7
	c-1.8-2.5-2.4-4.7-1.6-7.8c0.7-2.8,1-5.9,0.7-8.8c-0.3-2.8-1.3-5.4,2.3-6.4c-2.8-1.3-5.4-2.6-8.1-3.6c-1.5-0.6-3.2-0.6-4.7-1.2
	c-2.8-1.1-4.7-2.9-5.9-5.9c-0.7-1.8-3.2-2.9-5.4-4.7c-0.5,1.4-0.8,2.2-1.1,3.1c-1-0.3-2-0.6-3.2-1c3.6-4.3,1.7-8.9,1-13.4
	c0.7,0.2,1.2,0.3,1.7,0.4c0-0.4,0.1-0.8,0-1.1c-2.1-4.2-2.9-9.1-6.8-12.5c-1.3-1.1-1.7-3.2-2.6-4.7c-1.5-2.5-3.1-4.9-6.5-5.2
	c-0.9-0.1-2-1-2.6-1.8c-4.5-5.9-8.9-11.8-13.2-17.7c-2.8-3.9-5.9-7.6-8.1-11.8c-0.8-1.6-0.4-4.8,0.7-6.4c2.4-3.4,1.4-6.1-0.4-9
	c-0.8-1.3-1.7-2.7-2.7-3.9c-3.1-3.3-3.7-6.9-1.4-10.9c0.2-0.3,0.4-0.6,0.4-1c0.6-5.2,2.5-10.8,1.4-15.6c-1.6-6.7-1-13.9-5.4-20
	c-3.9-5.4-6.7-11.4-10.2-17.1c-0.7-1.2-2-2-3.2-2.9c-3.1-2.3-6.4-4.4-9.5-6.8c-2-1.6-2.9-3.5-2.1-6.4c0.5-1.9-0.5-4.3-0.5-6.4
	c0-2.7-0.4-5.6,0.5-8.1c1.6-4.5,3.9-8.8,6.1-13.1C22.8,157.7,24.3,156.1,26,153.8z M181.9,457.6L181.9,457.6c1.1,0.6,2.8,1,3.6,2
	c3.6,4.6,6.9,9.4,10.3,14.1c1.5-0.5,2.7-1.3,3.9-1.3c1.4,0,3,0.4,4.1,1.2c2.2,1.6,4.2,3.5,5.6,4.8c3.1-2.7,5.3-5.1,7.9-6.7
	c3.6-2.3,4.7-8.3,1.7-11.4c-5.2-5.3-10.3-10.6-15.6-15.8c-1.3-1.3-2.9-2.1-4.4-3.2c-3-2.2-6.8-3.8-8.7-6.8
	c-3.3-5.1-6.8-8.2-13.2-7.3c-1.4,0.2-3-0.7-5.2-1.3c-1.9,1.2-4.6,2.7-7.2,4.5c-0.6,0.4-0.9,2-0.5,2.6c2,4.2,7.1,6.4,7.2,11.9
	c0,0.6,1.5,1.1,2.2,1.7c3,2.4,6.4,4.5,6.5,9C180.2,456.3,181.3,457,181.9,457.6z M393.6,634.8c18.6-0.7,37-1.4,55.4-2.1
	c23.9-1,47.8-2,71.6-3c1.1,0,2.1-0.8,3.2-1.3c1.7-0.7,3.3-2,5-2.1c12.4-0.5,24.8-1.1,37.1-0.9c9.2,0.2,16.3-3.8,22.9-9.3
	c6.2-5.2,5.6-9.6-1.9-12.6c-4.7-1.9-7.9-5.1-9.9-9.6c-1.5-3.2-2.6-6.6-4.3-9.6c-1.6-2.8-3.4-5.7-5.6-7.9c-4.2-4-6-8.9-6.8-14.5
	c-0.2-1.6-1-3.5-2.2-4.5c-18.8-17.1-37.6-34.1-56.5-51c-1.3-1.2-3.6-2-5.4-2c-16.9-0.1-33.9-0.3-50.8,0.1c-6.7,0.2-13.7,0.8-20,2.8
	c-4.6,1.5-9.1,2-13.7,2.2c-7.5,0.3-14.9,0.6-22.9,1c0,3.1,0,5.8,0,8.6c-0.1,23-0.3,46.1-0.3,69.1c0,3.8,0.2,7.5,0.3,11.3
	c0,3.3-0.2,6.5,0,9.8c0.1,2.3,1,4.5,1.2,6.8c0.2,1.4,0.2,3.1-0.4,4.1c-1.5,2.3-2.2,4.4-2,7.4c0.2,2.3-1.2,5-2.3,7.2
	c-1,2.1-2.7,3.8-4.3,6C390.6,641.5,392,640.9,393.6,634.8z M323.2,391.6c-0.1,6,0.7,8.3,4.1,10.5c2.4,1.6,3.3,3.3,2.7,6
	c-0.6,2.8,0.5,4.7,3.1,6.1c3.1,1.8,6.9,3.5,8.8,6.3c3.9,5.6,6.5,12,4,19.1c-0.2,0.7-0.3,1.5-0.6,2.5c4,0.1,5.4,1.8,4,5.4
	c-0.1,0.3-0.2,0.8-0.1,1c2.7,5.3,5.1,10.8,8.2,15.9c2.1,3.5,4.7,6.6,4.2,11.2c-0.2,1.8,0.9,3.8,1.5,5.7c0.8,2.5,1.8,4.9,2.5,7.3
	c0.4,1.4-0.2,3.1,0.5,4.3c2.6,5,4.4,10,1.7,15.6c1.2,0.1,1.9,0.2,2.6,0.2c13.3-0.3,26.7-0.5,40-1.1c5.4-0.3,10.7-1.6,16-2.4
	c4.5-0.7,9-2,13.5-2c18-0.3,35.9-0.2,53.9-0.3c1,0,2-0.1,3.6-0.2c-1-1-1.5-1.7-2.1-2.2c-37.7-34.7-75.4-69.3-113-104.1
	c-3.7-3.5-7.2-5.7-12.9-5.4C354.1,391.8,338.8,391.5,323.2,391.6z M285.2,574.6c1.4,0.2,2.5,0.2,3.6,0.4c2.9,0.7,7.3,0.5,8.4,2.3
	c2.2,3.5,5,2.9,7.8,2.9c25.6-0.3,51.2-0.7,76.8-1.2c5.8-0.1,5.8-0.2,5.8-6.1c0-12.1-0.1-24.3-0.1-36.4c0-8.7,0-17.4,0-26.3
	c-1.6-0.1-2.5-0.3-3.4-0.3c-6.1,0.1-12.1,0-18.2,0.2c-18.2,0.7-36.5,0.1-54.7,1.3c-21.8,1.5-43.8,0.3-65.7,0.3c-0.6,0-1.2,0.1-2,0.2
	c0.3,3.6,0.6,7,0.9,10.6c3.7-0.4,5.5,0.9,5.2,4.7c-0.1,1,0.7,2.4,1.6,3c3.2,2.3,6.6,4.4,10.5,7c0.1,0.7-0.1,3.9,0.5,4.1
	c3.7,1.1,2.6,4.4,3.5,6.7c2.3,0.1,4.5,0.3,7,0.4c0,4.5,0,8.7,0,13.3c4.1,0,7.8,0,11.8,0C284.5,566.3,284.8,570.2,285.2,574.6z
	 M573.1,626.2C573.5,626.4,573.3,626.2,573.1,626.2c-15.2,0.4-30.4,0.9-45.5,1.4c-0.8,0-1.5,0.6-2.2,0.9c-2,0.9-4,2.3-6,2.4
	c-9.3,0.7-18.7,1.2-28,1.6c-29.8,1.1-59.7,2.1-89.5,3.1c-3.5,0.1-7.4-0.8-8.6,4.2c-0.1,0.5-0.9,0.8-1.3,1.2c-3.9,4.7-3.6,7,1,10.8
	c1.1,0.9,2.1,1.8,3.2,2.7c-7.5-2.6-9-5.5-7.2-12.4c-5.9,0.3-11.6,0.7-17.3,1c-0.5,0-1.1,0.5-1.5,0.9c-2.8,4-5.5,8-7.6,11
	c4.2,4.6,7.5,8.4,11,12.3c2.8-1.5,4.4,0,6.2,2c2.8,3.2,5.9,6.1,9,9c1.8,1.7,3.5,1,4.9-0.8c0.9-1.1,2-2,2.8-3.2
	c0.6-0.9,1.2-2.1,1.1-3c-0.6-4.2,0.2-5.7,4.9-7.1c-1.3,1.3-2.4,2.1-3.2,3c-1.5,1.8-0.8,3.4,1.4,4c3.4,0.9,6.8,2.1,10.3,3.1
	c2.4,0.6,4.8,1.5,7.2,1.5c47.7-1.1,95.4-2.4,143.1-3.5c3.2-0.1,5-1.9,6.2-4.3c1.9-3.8,3.4-7.7,4.9-11.7c1-2.5,1.3-5-0.1-7.7
	c-0.8-1.5-0.8-3.6-0.7-5.3C571.9,637.6,572.5,632,573.1,626.2z M101.3,132.4c-4.7-5.1-3.5-9.3,1.3-12.9c0.6-0.4,1.8-1,2-0.8
	c4.2,4.4,5.7,1.6,7-2.4c0.1-0.2,0.3-0.4,0.4-0.6c3.5-2.9,7-5.8,10.2-8.5c6.8,3.4,2.5,9.3,3.6,14.6c1.4-1.5,2.3-2.4,2.7-2.9
	c3.4,1.1,6.5,2.9,9.7,3c11.9,0.5,23.8,0.6,35.7,0.8c1.9,0,3.8,0,6.3,0c0-19.8,0-39.3,0-59.1c-35.6-1-71.4-2-107.5-3.1
	c1.1,5.9-0.9,9.1-6.1,10.5c-1.6,0.4-2.9,1.9-4.4,2.9c0.4,0.1,0.8,0.2,1.2,0.4c0.2,3.2,1.2,6.7,0.5,9.7c-0.7,3.2-1.4,5.9,0.2,9
	c0.6,1.2,0.3,3.1,0.1,4.6c-0.3,2.6-0.8,5.1-1.3,8.2c3.1,0,5.1,0,7.2,0c5.1,0.1,5.2,0.1,5,5.3c-0.2,3.5,0.1,6.9,2.6,9.5
	c2,2.1,4.3,4,6.6,5.7c1,0.8,2.5,1,3.8,1.4c1.2,0.4,3.1,0.2,3.7,0.9C93.9,131.6,97.2,131.8,101.3,132.4z M292.4,447.1
	c5.2,0,10.1,0.1,14.9-0.1c1,0,2.9-1.3,2.9-2c0.1-3.2,1.9-3.3,4.3-3.3c8.6,0.1,17.2,0.2,25.8,0c1.5,0,4-1.4,4.1-2.3
	c0.4-3.9,0.4-7.9-0.3-11.6c-1.2-6.5-6.5-9.6-11.7-12.5c-3.1-1.7-4.6-3.8-3.6-7.2c0.6-2-0.1-3.3-1.8-4.6c-3-2.3-5.6-4.9-5.1-9.3
	c0.1-0.8-0.2-2.2-0.7-2.6c-3.8-2.8-7.7-5.4-11.7-8.1c-4.7,5-9.3,9.5-13.4,14.4c-1.4,1.7-1.9,4.3-2.6,6.6c-1.2,3.4-0.2,8.3-4.6,9.5
	c-5.1,1.4-8.5,5-12.5,7.9c-3.6,2.6-7,5.4-9.1,9.6c-0.8,1.7-3.1,3-5,3.7c-6.5,2.1-13.2,3.8-19.8,5.7c-6.5,1.9-11.4-0.3-14-6.4
	c-1.5-3.7-2.9-7.4-4.4-11.3c-6.4,6.7-12.7,13.4-19.3,20.3c4.9,5.2,10.3,10.9,15.7,16.7c3.9,4.2,3.3,9.4-1.4,12.7
	c-1.4,1-2.8,2.1-4.3,3.2c2.9,1.7,5.9,3.3,3.9,6.5c-1.8,3-0.8,5.1,1.1,6.7c3.4,2.9,7.2,5.4,11,7.7c2.1,1.3,4.7,2,7.6,3.3
	c4.8-5.2,10.3-11.1,15.7-17.2c0.7-0.8,0.8-2.2,0.9-3.4c0.3-4.3,0.5-8.6,0.7-13c1.8-0.1,3.1-0.4,4.4-0.2c6.8,1,12.2-1.4,16.7-6.4
	c3.9-4.3,8.5-7.1,14.6-6.6c0.2,0,0.4-0.3,0.6-0.5C292.1,451.1,292.2,449.3,292.4,447.1z M367.1,508.9c0-3.5,0.7-6.9-0.2-9.8
	c-1.2-4.3-3.1-8.3-3-12.9c0-1.3-1.3-2.5-1.8-3.9c-0.8-2.2-2.1-4.5-1.9-6.6c0.4-3.9-1.2-7-3.4-9.6c-5.3-6.4-8.5-13.6-9-22.6
	c-11.9,0-23.9,0-36,0c-0.4,1.5-0.8,3.1-1.3,4.9c-5.7,0-11.3,0-16.9,0c-0.1,2.1-0.3,4-0.4,6.2c-2.5,0.1-5.1-0.3-7,0.5
	c-2.4,1.1-5.7,3-6.1,5c-0.5,2.5-0.4,6.5,3.8,7.6c0.5,0.1,1.3,1.1,1.2,1.5c-0.7,3,1.8,7.1-3.1,8.6c-0.5,0.2-0.9,1.4-0.9,2.1
	c0.4,5.3,0.9,10.5,1.2,15.8c0.1,1.4-0.4,2.8-0.9,4.1c-1,3.2-2.2,6.4-3.4,10c2,0.2,3,0.3,3.9,0.3c11.9-0.9,23.8,1.9,35.8-0.9
	c5.5-1.3,11.6-0.3,17.4-0.3C345.6,508.9,355.9,508.9,367.1,508.9z M257.1,125.1c-23.1-0.4-46-0.7-69.5-1.1c0,6.9-1.4,13.6,0.4,19.4
	c1.7,5.6,0.5,10.8,0.7,16.1c0.2,5.5,0.1,11.1,0.1,17c4.6,0,9.2,0,13.9,0c-2.3,5.7-3.9,11,1.2,15.3c1.4-0.3,2.9-1,3.5-0.5
	c0.9,0.7,1.3,2.2,1.9,3.3c0.4-0.4,0.7-0.7,1.1-1.1c0.9-5,5.1-8.4,10-7.2c3.6,0.9,6.8,3,10.2,4.6c0.2,0.1,0.3,0.4,0.4,0.6
	c3.1,4.6,7.7,7.1,12.7,9.3c1.5,0.7,3.5,2.1,3.7,3.4c0.4,3.3,0.8,6.2,4.3,7.8c0.5,0.2,0.5,1.7,0.5,2.6c0,4.8,0,9.6,0,14.4
	c2.2,0,3.5,0,5,0C257.1,194.3,257.1,159.8,257.1,125.1z M564.2,699.5c0-3.6,0-7.2,0-10.8c0-1.4,0.3-2.9,0-4.2c-1-3.5-2.2-6.9-3.6-11
	c-25.4,0.7-51.7,1.4-77.9,2c-1.9,10.1,0.8,19.8-2.1,29.7c-2.3,8-0.5,17.3-0.5,26.2c2.8-0.2,4.7-0.4,6.6-0.6
	c26.1-3.3,52.2-6.8,78.3-9.8c5.5-0.6,8.8-2,10.9-7.6c1.7-4.5,0.6-8.2-1.2-11.7c-0.6-1.3-4-1.3-6.1-1.7
	C567.3,699.8,566,699.7,564.2,699.5z M257.3,65c-25.1-0.6-50.1-1.2-75.7-1.8c0,20,0,39.5,0,59.3c25,0.4,50.2,0.9,75.7,1.3
	C257.3,104.1,257.3,84.8,257.3,65z M481.4,675.6c-15.7,0.4-30.3,1-45,1.1c-10.7,0.1-21.6,2.9-31.7-3.7c-1.6-1-4.7-1.6-6.6,1.5
	c-1.4,2.3-3.9,3.9-5.9,5.8c9.3,9,16.9,18.4,20.1,30.6c0.4,1.6,0.1,3.7-0.6,5.3c-0.8,1.9-3.5,3.6,0.7,4.7c0.3,0.1,0.3,1.6,0.1,2.4
	c-0.2,0.7-0.8,1.2-0.9,1.4c1.8,0.5,3.5,0.7,4.8,1.5c1.9,1.2,3.6,2.9,5.2,4.6c0.8,0.9,1.1,2.2,1.7,3.4c-1.2,0.3-2.3,0.7-3.8,1.1
	c0.2,1.7,0.5,3.7,0.8,5.9c19.9-3.2,39.4-6.4,58.8-9.5c0-7.2-0.1-13.9,0-20.6c0.1-3.7-1.8-7.8,2.1-10.8c0.3-0.2,0.2-0.9,0.2-1.4
	C481.4,691.4,481.4,683.8,481.4,675.6z M186.4,123.5c-14.1,0-27.6,0.1-41.2-0.1c-5.5-0.1-11.4,1.8-16.4-3.5c-0.8,2-1.9,4.2-1.3,5.5
	c1.4,2.7,0.6,3.5-1.9,3.9c-0.8,0.1-1.5,0.4-2.3,0.6c0.3,0.2,0.6,0.5,0.9,0.7c-0.9,2-1.4,4.4-2.8,5.9c-3.2,3.3-1.5,9.2-6.2,11.6
	c-0.1,0,0.2,0.5,0.1,0.7c-0.9,2.1-1.9,4.2-2.6,6.3c-0.6,1.5-1.4,3.3-1.1,4.7c1,4.4,0.6,6.1-3.1,8.7c-4.3,3-8.6,5.9-12.8,9.1
	c-1.1,0.9-1.6,2.6-2.6,4.4c2.3,0.4,4,1.2,5,0.7c4.1-2.2,8.2-1.7,12.5-1.3c2.2,0.2,4.5-0.5,6.6-1.3c3.4-1.3,6.6-2.1,10.2-0.8
	c1.6,0.6,3.5,1.1,5.2,0.9c6-0.7,12.1-1.3,17.9-2.8c6.4-1.6,12.7-1.4,19.1-1.4c4.7,0,9.5,0.3,14.2,0.4c1,0,2.1-0.1,3.1-0.2
	c0.1-1,0.2-1.6,0.2-2.2c-0.8-10,2-19.9-0.5-30C185.1,137.8,186.4,131,186.4,123.5z M97.8,287.5c-0.6-0.5-1.5-1.1-2.2-1.9
	c-2.7-3.6-5.8-7-7.7-10.9c-1.1-2.4-1.4-6.2-0.2-8.5c2.4-4.8,4.5-9.2,1.7-14.5c-0.6-1.2-0.9-2.8-1.1-4.2c-0.6-4.5,1.7-7.1,6.3-7
	c2.2,0,5.9-3.3,5.6-4.9c-0.5-2.6-0.8-5.3-1.2-7.9c-0.5-2.7-0.4-5.8-1.7-8.1c-1.5-2.9-1.6-5.2,0.4-7.6c1.6-2,0.8-3.2-1.4-3.5
	c-2.7-0.4-5.5-0.5-8.3-0.8c-8.6-1.1-17.3-0.3-25.9-1.9c-7.6-1.4-15.7-0.3-24.2-0.3c1.5,2.4,2.8,4.5,4.2,6.5c6.5,9,8.3,19.1,7.2,29.9
	c-0.3,3.4-1.2,6.7-1.7,10c-0.9,5-0.3,9.4,3.2,13.6c1.8,2.2,3.6,6.4,2.7,8.5c-2.6,5.7-1,9.6,2.4,14.3c2.6,3.5,3.8,5,8.4,4.6
	c5.2-0.4,10.4-0.9,15.6-1C86.2,291.5,92.4,291.9,97.8,287.5z M237.6,376.5c-1.5-2.4-0.3-3.8,1.9-5c1.8-1,3.5-2.2,5.1-3.5
	c4.5-3.4,9.2-3.9,14.3-1.4c0.1,0.1,0.2,0.1,0.3,0.1c7.8,3.2,12.5,1.6,16.8-5.6c2.2-3.7,2.9-4,6.5-1.5c3.4,2.4,6.6,5.2,9.8,7.9
	c1.7,1.4,5.6,0.6,5.6-1.5c0-2.4-0.1-6.2-1.6-7.1c-3.6-2.3-3-5.7-4-8.7c-0.5-1.6-1.9-4-3.2-4.2c-8-1.2-11.6-6.3-13.4-13.4
	c-0.2-0.8-1-1.9-1.6-2c-5.9-1.1-11.9-2.1-16-7.2c-0.2-0.3-0.9-0.5-1.3-0.4c-2,0.5-4.3,0.5-5.8,1.7c-3.4,2.6-6.5,5.8-9.7,8.8
	c-0.2-0.3-0.5-0.5-0.7-0.8c3.3-3.1,6.5-6.4,9.9-9.4c1.9-1.6,2.4-3.2,0.8-5.6c-5,0.9-10.1,1.8-15.1,2.7c-0.1-0.3-0.1-0.7-0.2-1
	c3.7-0.7,7.4-1.5,11.1-2.2c5.5-1.1,8.4-7.5,5.6-12.9c-3.6,2.8-7,5.8-10.7,8.4c-1.6,1.2-3.6,2.4-5.5,2.4c-6.8,0.3-13.7,1.5-20.4-1.3
	c-1-0.4-2.4-0.2-3.6-0.1c-3.9,0.6-7.8,1.3-12.5,2.1c0,4.6-0.1,9.7,0.1,14.7c0.1,2,0.5,5.2,1.6,5.7c2.2,0.9,5.2,0.8,6.7-2.4
	c0.4-0.9,1.7-1.7,2.8-2.1c4.2-1.6,8.5-3,12.7-4.5c-0.7,1.1-1.6,1.9-2.7,2.3c-2.7,1.1-5.5,1.9-8.2,2.9c-1.2,0.5-3,0.9-3.3,1.9
	c-1.2,3-3.5,3.7-6.9,3.5c1.6,11.3,10.4,17.3,16.4,25.7c2.2-2.6,4.3-4.8,6.1-7.1c1.2-1.6,1.9-3.5,3.1-5.1c1.8-2.4,3.8-4.7,5.7-7.1
	c0.5-0.7,0.8-1.5,1.2-2.3c0.3,0.3,0.7,0.7,1,1c-0.7,1.1-1.3,2.2-2.1,3.3c-4.5,6.1-9.1,12.2-13.8,18.3c0,0,0,0.3,0.2,0.4
	c3.1,3.4,6.5,6.6,9.4,10.1C232,377.9,234.4,378.2,237.6,376.5z M27.1,156.3c-0.1,0-0.2,0.1-0.4,0.1c-0.8,1.1-1.6,2.3-2.6,3.1
	c-3.8,3.3-6.3,12.3-4.8,17.3c0.5,1.7,0.8,3.6,0.3,5.3c-0.8,2.8-0.1,4.9,2,6.4c3,2.3,6.3,4.1,9.2,6.5c1.7,1.4,2.7,3.7,4.2,5.4
	c1.1,1.2,2.5,2.9,3.9,3c7.7,0.4,15.5,0.5,23.3,0.5c0.8,0,2.3-1.4,2.3-2.1c0.6-16.8,1.2-33.7,1.4-50.5c0-3,0.1-6.5-2.7-9
	c-0.6-0.5-0.4-3.1,0.4-3.7c0.9-0.8,3-1.1,4-0.6c2.9,1.5,4.3-0.7,5.4-2.2c0.8-1.1,0.3-3.2,0.2-4.8c-0.1-1-1-2.1-0.8-2.8
	c0.8-2.4,2-4.7,2.7-6.3c-1.1-4.9-2-9.4-3-13.9c-5.5-0.2-11.2-0.5-17.1-0.8c0-2.2,0-4.1,0-6.4c-4.8,0-9.4,0-14,0
	c-0.7,4.4-1,8.6-2,12.7c-1,4-0.7,8.6-4.6,11.5c-0.3,0.2,0,1.1,0,1.7c0.3,4.6,0.6,9.2,1,13.9c0.8,0.7,2.7,1.6,2.9,2.9
	c0.2,1-1.9,2.3-2.9,3.5c-1.8,2.1-3.6,4.3-5.5,6.4C29,154.4,28,155.3,27.1,156.3z M204.7,370.3c-6.6,0.4-12.8,0.7-17.4,6
	c3-4.5,7-6.8,12.4-6.8c4.6,0,5-1,3.3-5.5c-0.3-0.7-0.1-1.6-0.1-2.5c0.3-4.4,1-8.7,0.7-13.1c-0.2-3.4-1.4-6.9-2.6-10.2
	c-0.9-2.4-2.5-4.5-3.9-7.1c-4,4.2-9.7,4.6-15.9,4.5c-6.3-0.1-12.3,6.9-12.3,13.2c-0.1,4.8,0,9.7-0.2,14.5c-0.1,3.5-0.5,7-0.7,10.5
	c-0.5,0-1.1,0-1.6,0c-0.1-2.7-0.3-5.3-0.4-8.6c-5,5.2-11.5,5.9-17.7,7.3c-2.9,0.7-4.9-0.1-6.2-2.8c-0.5-1-1.9-2.4-2.7-2.3
	c-4.3,0.6-6.2-2.5-8.7-5c-1.1-1.1-2.7-1.8-4.7-3c0.4,2.3,1,3.6,0.7,4.7c-0.8,2.9,0.3,4.6,2.7,6.1c1.5,0.9,3.2,2,3.9,3.5
	c1.5,3.5,2.6,7.1,3.6,10.8c0.8,2.8,1.7,5.2,5.1,4.9c3-0.2,6-1,9.1-1.1c4.5-0.1,9,0.1,13.5,0.1c1.3,0,3.8-0.4,3.8-0.9
	c0.2-1.5-0.5-3.2-1-5.9c1.7,1.8,2.8,3.1,4.2,4.6c1.4-0.4,3.2-0.9,5-1.4c0.1,0.3,0.2,0.6,0.3,0.8c-2.1,0.8-4.3,1.7-7.5,2.9
	c2.7,2.8,5.1,4.9,7,7.4c0.6,0.8,0.8,3,0.2,3.7c-3.7,4.5-3.9,6.5-0.1,11.4c3.3-2.8,6.3-1.6,9.1,1c2.9-2.6,5.7-5.1,8.5-7.7
	c2.7-2.5,5.9-4.7,6-9.1c0-0.8,1.1-1.9,2-2.3c6.6-3.6,13.2-7,19.9-10.5c2.8-1.5,5.6-3,8.5-4.6c-8.6-9.7-16.9-19-25.7-28.9
	C204.7,356.4,204.7,363.1,204.7,370.3z M386.5,581.5c-22.6,0-44.9,0-67.9,0c0.7,2,1.1,3.3,1.6,4.6c1.1,2.9,2.2,5.7,3.3,8.6
	c0.2,0.6,0.4,1.1,0.6,1.7c3,6.8,6,13.7,9,20.5c0.4,0.9,0.6,2.1,0.3,3c-0.7,2.1-1.8,4-3,6.6c-5.5,1.2-12.1,2-16.2,8.2
	c0.3,0.8,0.7,1.8,1.2,2.9c2.6,0.1,5.3,0.4,8,0.3c2.2-0.1,4.3-1.1,6.4-1.1c3,0,6.1,0.5,9.1,1c1.4,0.2,2.7,1.5,4.1,1.5
	c11,0.1,22.1,0.1,33.1,0.1c1,0,2.4,0.2,2.8-0.4c2.7-3.7,7.3-6.1,7-11.7c-0.1-2.2,0.9-4.6,1.9-6.8c0.7-1.7,1.7-3.1-0.2-4.7
	c-0.6-0.5-0.7-1.8-0.8-2.7c-0.1-5.2-0.2-10.4-0.3-15.6C386.5,592.2,386.5,586.9,386.5,581.5z M165.8,493.8c2-0.2,3.4,1.1,3.4,4
	c0,0.7,0.3,1.4,0.5,2.1c0.9,5.4,5.4,9.4,10.9,9.4c9.8,0.2,19.7,0.3,29.5,0.4c9.9,0.1,19.8,0,30.1,0c-0.7-1.6-1.4-3.3-2.2-5.1
	c-2.3-5.4-7.8-7.1-12.3-9.3c-4-2-6.6-4.6-9-8c-1.2-1.7-1.5-3-0.1-4.8c0.6-0.7,0.8-2.4,0.3-3.1c-0.7-0.9-2.3-2-3.2-1.8
	c-1.2,0.2-2.1,1.6-3.6,3c-2.5-2.2-5-4.5-7.6-6.7c-0.5-0.4-1.6-0.7-2.3-0.5c-1.6,0.5-3.1,1.3-4.7,2c0,0-0.2-0.2-0.3-0.4
	c-4.5-6-7.9-13-15.3-16.4c-0.4-0.2-0.7-1.2-0.7-1.9c-0.1-4.6-3.1-7.1-6.5-9.4c-0.9-0.6-2.4-1.4-2.4-2c0.5-3.3-2.3-4.5-3.5-6.6
	c-1.5-2.8-5.1-4.6-4.6-8.5c0.1-0.5-0.7-1.2-1.2-2.1c-2.3,1.6-4.4,2.9-6.3,4.5c-0.9,0.7-2,1.7-2.1,2.7c-0.4,4.3-0.2,8.5-2.3,12.9
	c-2.2,4.6-1.4,5-6.4,2.2c-0.5,1.9-1.7,3.9-1.3,5.4c1.3,4.5,3.3,8.7,4.9,13.1c0.2,0.6,0.3,1.5,0,2.1c-1.6,3.9,0.5,6,3.6,6.9
	C159.3,480.4,160.5,488.4,165.8,493.8z M261.1,542.2c-0.9-4.5-1.3-3.9-4.8-6.1c-3.6-2.2-8.2-4.1-8.2-9.7c0-0.8-1.1-1.8-2-2.3
	c-1-0.6-2.3-0.6-3.7-1c0-2.7,0.1-5.2,0-7.7c-0.1-2.4-1-3.5-3.8-3.6c-10.9-0.1-21.8-0.5-32.7-0.7c-9.3-0.1-18.6,0-27.8,0
	c1.2,3.2,2.6,6.8,4,10.6c5.1-0.5,8.3,2.8,10,7.3c2,5.3,5.1,8.3,11,7.8c0.2,0,0.4,0.3,0.1,0.1c1.2,2.8,3.2,5.4,3,7.6
	c-0.3,2.2-2.8,4.2-4.9,7c3.6,1.2,6.7,2.4,9.8,3.4c2.3,0.7,5.8,0.1,4.9,4.5c-0.1,0.3,0.6,0.8,0.9,1c1.9,1.2,1.8,2.4,0.6,4.2
	c-0.8,1.2-1.1,2.9-1.9,5.1c8.1-3.3,14.6-1.7,20.9,2.4c-0.2-2-0.3-3.8-0.5-5.6c0.3,0.3,0.6,0.5,0.9,0.8c3.1-2,6.2-4.2,9.5-5.9
	c1.4-0.7,3.4-1.1,4.8-0.6c4.8,1.8,9.5,4.1,14.2,6.1c5.9,2.5,12,4.7,18.4,7.3c-0.2-4.1-0.4-7.3-0.6-10.9c-4.1-0.2-8-0.4-12.2-0.7
	c0-4.5,0-8.6,0-12.8c-1.4-0.1-2.5-0.3-3.5-0.1c-2.9,0.4-3.8-0.8-3.9-3.6C263.5,544.7,261.9,543.5,261.1,542.2z M96.9,206.6
	c0-4.9-0.2-9.5,0.1-14c0.2-2.9-0.2-4.9-3.1-6.2c-1.1-0.5-2.8-2.4-2.5-3c1-2.5,2.1-5.3,4-7c3.9-3.4,8.3-6.3,12.7-9.1
	c2.8-1.8,3.4-4.2,2.3-6.8c-1.3-2.9-0.2-4.5,1.6-6.5c3.1-3.4,2.1-8.9,6.2-11.8c0.1,0,0.1-0.3,0-0.3c-1.4-2.9,0.7-4.5,2.4-6.1
	c1.7-1.7,2.6-3.5-0.2-5.8c2.5-1,4.5-1.8,6-2.4c-0.3-4-4.3-6.7-1.9-11.4c0.7-1.4,1.6-5.3-2.7-6.8c-3,2.9-7,5.5-9.4,9.2
	c-3,4.7-4.1,5.5-8,1.7c-5.1,4.6-5.1,4.6-2.5,10.7c0.3,0.7,0.3,1.9-0.1,2.6c-0.3,0.5-1.5,0.7-2.2,0.6c-3-0.6-6.2-0.4-8.1-3.8
	c-0.4-0.8-2.4-1.1-3.6-1c-3.1,0.3-4.9-1.5-6.7-3.6c-1-1.2-2.4-2-3.6-3c-1,1.3-2.4,2.4-2.9,3.9c-0.5,1.3-0.2,3.1,0.2,4.5
	c1.6,5-1.8,9.3-6.9,8.8c-1.1-0.1-2.2,0.3-3.6,0.5c1.1,1.8,2.1,2.8,2.3,3.9c0.5,2.8,0.9,5.7,0.9,8.6c-0.1,10.9-0.3,21.8-0.6,32.7
	c-0.2,6.5-0.6,13-0.8,19.7C76.9,205.6,87.2,206.2,96.9,206.6z M279.4,302.6c-1.4,7.9-1.8,8.3,0.9,12.4c2.1,3.3,1,5.2-0.8,7.7
	c-5.9,8.1-1.6,19.3,8.4,21.5c3.6,0.8,5.5,2.5,5.9,6.2c0.2,1.9,0.5,4.3,1.7,5.6c4.1,4.3,5,8.8,1.7,13.8c2.3,1.2,4.6,2.2,6.7,3.5
	c1.2,0.7,2.8,1.7,3,2.8c1.3,7.2,8.4,8.4,12.7,12.5c1.2,1.2,3.2,2.1,4.8,2.1c4.2,0.1,8.5-0.3,12.7-0.6c6.2-0.3,12.5-0.8,18.7-0.9
	c6-0.2,12,0,18.4,0C342.7,360.3,311.3,331.6,279.4,302.6z M180.4,177c-9.2,1.3-17.5-0.9-26,1.5c-7.1,2-14.7,2.2-22.2,3.1
	c-1.4,0.2-3.2,0.3-4.2-0.4c-3.3-2.3-6.3-1.2-9.7-0.2c-2.9,0.9-6,1.1-9.1,1.5c-1.6,0.2-3.3-0.1-5,0c-3.8,0.4-7.6,1-11.5,1.6
	c0.5,0.3,1.1,1,1.9,1.4c3.2,1.5,3.7,3.9,3.5,7.2c-0.2,3.4,0,6.9,0.4,10.3c0.3,2.7,2.4,6.6,1.3,7.7c-3.4,3.5-1.3,6.3,0.1,10.4
	c14.7,0.4,29.6,0.7,44.7,1.1c0.4-2.2,0.7-4,1-5.7c3.5,0,6.8,0.1,10-0.1c1.3-0.1,2.9-0.5,3.8-1.4c8.3-7.8,16.4-15.8,24.7-23.7
	c2.2-2.1,1.3-4.1-0.5-5C180.1,184.5,177.8,182.3,180.4,177z M251,229.2c0-5.2,0.1-10-0.1-14.8c0-0.8-0.7-1.9-1.4-2.3
	c-2.2-1.4-2.8-3.3-3.1-5.8c-0.2-1.4-1-3.5-2-3.9c-5.9-2.3-11.2-5.1-14.8-10.6c-0.2-0.3-0.9-0.4-1.3-0.6c-1.4-0.8-2.7-1.8-4.2-2.2
	c-2.4-0.7-5.5-1.9-7.4-1c-2.1,1-5.5,2.7-3.7,7.8c-2.8-1.3-4.7-2.1-6.9-3.1c-0.2,0.2-0.9,0.8-1.4,1.3c-7.1-3.8-5.1-9.9-4.6-16.2
	c-6.1,0-12.1,0-18.3,0c-1.5,2.9-1.7,5.4,2.4,7.1c3.5,1.5,3.8,5.1,0.9,7.6c-0.8,0.7-1.7,1.3-2.6,1.9c0.4,0.1,0.9,0.3,1.3,0.4
	c0.5,2.6,1.1,5.1,1.5,7.7c0.4,3.1-0.2,5.7-3.2,6.1c0.7,2.1,1.3,3.8,1.8,5.6c0.4,1.6,0.2,3.6,1.2,4.9c4.7,6.2,9.6,12.1,14.9,18.7
	c3.1-3.3,5.9-6.3,8.6-9.2c4.3-4.6,5.7-4.4,7.9,1.3c0.1,0.2,0.3,0.3,0.7,0.7C228.2,230.1,239.5,229.6,251,229.2z M239,575.7
	c-1.9-1.2-3.3-1.8-4.4-2.7c-3.9-3.1-8.3-3.8-13-3.1c-2,0.3-4.6,1-5.6,2.4c-1.4,2-0.1,4.3,1.7,6.1c2,2,2.4,4.3-0.1,6.2
	c-1.9,1.5-1.4,2.7,0,4.2c2,2.1,1.8,4.3-0.1,6.5c-0.6,0.7-1.2,1.4-2,2.4c2.8,1.3,5.4,2.4,7.9,3.8c1.1,0.6,2,1.8,2.5,2.9
	c1.4,3.3,4.4,4.6,7.1,3.4c6.5-3,12.9-1.4,19.3-0.5c4.4,0.7,8.4,3,13.3,2.7c2.5-0.1,5.4,0.6,8.3,0.3c3.1-0.3,6.3,0.5,9.1,0.8
	c2.1-2.9,3.4-5.9,0.7-9.1c-0.1-0.1,0-0.5,0-0.7c0.1-7.4,0.1-14.8,0.5-22.2c0.1-2.7-0.9-3.8-3.3-4.7c-9.8-3.8-19.5-7.8-29.4-11.4
	c-1.5-0.5-3.8,0.5-5.5,1.3c-1.5,0.7-2.6,2.4-4.1,2.8c-4.4,1.4-4.5,1.2-3.3,6C238.8,573.7,238.8,574.3,239,575.7z M254.1,410.3
	c-0.1,0-0.3-0.1-0.4-0.1c-1.4,1.1-2.7,2.3-4.2,3.3c-0.5,0.4-1.4,0.6-2,0.5c-6.8-1.3-12.5,1.7-18.2,4.7c-3.5,1.8-4.4,3.9-2.9,7.3
	c1,2.4,2,4.9,3,7.3c2.2,5.3,6.5,7.7,12,6.2c7.1-1.9,14.2-3.8,21.2-6c1.5-0.5,3.1-1.7,3.8-3c1.9-3.8,4.7-6.6,8.1-9
	c4.5-3,7.9-7.5,13.6-8.8c1.4-0.3,3.1-3.2,3.2-5c0.3-7.2,4.3-12.1,9.1-16.7c2.8-2.7,5.3-5.6,7.8-8.2c-0.9-1.6-1.9-2.9-2.2-4.2
	c-0.7-3.2-2.7-4.6-5.7-5.2c-1.4-0.3-3.1-0.6-3.9-1.6c-2.3-3-4.2-2-6.3,0c-2.6,2.4-5.1,4.8-7.7,7.2c-1.9,1.8-4.3,3.3-3.2,6.6
	c0.2,0.6-0.1,1.7-0.5,2c-2.8,1.9-5.7,3.7-8.6,5.5c-0.7,0.4-1.5,0.8-2.1,1.4c-3.6,3.6-7.2,7.2-10.7,10.9
	C256.1,406.9,255.2,408.7,254.1,410.3z M61.5,294.2c3.1,4.5,5.7,8.3,8.5,12.2c2.3,3.2,3.5,7.5,8.7,7.6c0.7,0,1.6,1.4,2.2,2.3
	c1.3,2.1,2.2,4.4,3.7,6.3c1.6,2,3.8,5.5,5.4,5.3c6.6-0.7,9.7,4.6,14.3,7.2c0.7,0.4,1,1.4,1.7,2.4c-3.2-2-6.6-3.1-8.4-5.5
	c-2.4-3.2-5-2.4-8.3-2.2c4.6,6.8,1.4,13.4,0.9,20.6c1.9-3.6,4.1-2.1,6-0.8c1.3,0.9,2,2.6,3.1,3.8c1.5,1.6,2.9,3.5,4.8,4.6
	c2.7,1.5,5.6,2.8,8.6,3.5c1.4,0.3,4.5-1,4.5-1.4c-0.1-5.4,3-10.7,0.2-16.1c0-0.1,0.3-0.3,0.5-0.6c0.5,0.7,1.1,1.4,2.1,2.6
	c1.7-2.5,3.5-4.5,4.6-6.8c1.3-2.5,0.6-4.9-1.8-6.6c-0.3-0.2-0.2-0.9-0.3-1.4c-2.5-6.5-3.7-13.7-10.1-18.2c-1.1-0.8-1.7-2.6-1.9-4
	c-0.4-2.7,1.1-6-3.2-6.8c-0.5-0.1-0.9-1.4-1.2-2.1c-1.2-2.5-2.3-5.1-3.6-7.5c-1.9-3.5-4-3.9-7.6-2.1c-2,1-4.4,1.8-6.6,2
	C79.3,293.2,70.5,293.6,61.5,294.2z M176.9,295.5c0.3,0,0.6-0.1,0.9-0.1c-0.3,2.9-1.1,5.9,3.5,5.7c3.5-0.2,7,0.4,10.5,0.5
	c0.9,0,2.3-0.4,2.7-1c1.9-3.4,3.5-7,5.2-10.5c2.1-4.3,5.1-7.6,10.4-7.7c0.6,0,1.4-0.4,1.7-0.9c2.4-3.2,6.2-3,8.2,0.5
	c1.7,3.1,4.5,3,7.5,3c2.7,0.1,3-1.7,3.6-3.5c0.9-2.4,2.3-3.7,5.4-3.5c4.1,0.3,8.7,2.1,12.2-2.2c0.4-0.4,1.6-0.2,2.5-0.2
	c1.5,0,3,0,4.9,0c0-5.7,0-11,0-16.9c-9.4,0-18.6-0.1-27.8,0c-2.7,0-5.6,0.4-8.2,1c-6.6,1.7-8.5,9.2-14.4,11.8
	c-0.2,0.1-0.1,0.9-0.2,1.4c-1.4,5-5.4,7.4-10.5,6.3c-0.6-0.1-1.2,0.1-1.8,0.1c-2-0.1-4.4,0.4-5.8-0.5c-2.3-1.5-3.5,0.2-4.8,1
	c-0.7,0.4-0.6,2.2-0.7,3.4c-0.1,1,0.1,2.1,0.2,3.4c-1.6,0.1-2.9,0.2-4.2,0.3c0-0.3-0.1-0.5-0.1-0.8c1-0.3,1.9-0.6,3.1-1
	c-0.3-1.4-0.5-2.7-1-5c-3.2,2.7-5.6,4.8-8.4,7.2c-0.7-4.1-0.7-8.1-2.3-11.5c-2.1-4.4,3.1-10.6-4.3-13.3c1.5-1.1,2.4-1.8,3.3-2.5
	c0-0.3-0.1-0.6-0.1-0.9c-3.9,0-7.8-0.2-11.7,0.1c-1.3,0.1-2.7,1.3-3.7,2.4c-1.3,1.4-1.4,2.9,0.2,4.5c0.6,0.6,0.6,1.7,1,2.5
	c0.8,2.1,1.1,5,2.6,6c3,2,2.7,4.5,2.5,7.3c-0.1,1.1-0.6,2.3-0.3,3.2c0.9,2.1,1.8,4.5,3.4,6c1.4,1.3,3.7,1.4,5.4,2.1
	c-0.7,0.2-2.1,0.7-3.4,1.2c-0.3,3,1.4,3.9,3.9,3.9c2.6,0,5.2,0,8,0C176.2,297.4,176.5,296.4,176.9,295.5z M249.9,410.8
	c-0.2-0.4-0.4-0.8-0.6-1.2c-1-0.5-2.5-0.8-3-1.6c-2-3.4-3.9-6.9-5.4-10.6c-1.6-3.9-2.6-8-4-12c-1.7-5-4.5-6.2-9-4
	c-1.6,0.8-3.2,1.7-4.9,2.5c-4.6,2.3-9.3,4.5-13.8,6.9c-3.9,2-8.4,3.5-8.5,9.2c0,1.4-1.2,2.9-2.3,4c-3.9,3.7-8,7.2-11.8,10.5
	c-0.2,3.4-0.5,6.7-0.6,10.1c0,0.9,0,2.1,0.5,2.7c4.2,4.8,7.8,10.2,13.9,12.9c2.1,0.9,3.2,1.2,4.9-0.6c6-6.1,12-12.4,18.5-18
	c4-3.4,8.8-5.9,13.5-8c2.6-1.2,5.9-0.6,8.8-1.1C247.5,412.3,248.6,411.4,249.9,410.8z M297.9,628.9c4,2,7.3,3.6,10.4,5.4
	c1.8,1,3.2,1.2,4.6-0.7c3.5-4.3,8.1-6.7,13.6-7.6c1.1-0.2,2.3-0.6,2.4-0.7c1.1-2.2,1.8-3.7,2.5-5.2c0.3-0.7,0.8-1.6,0.5-2.2
	c-1.9-5.2-3.9-10.4-6-15.5c-2.5-5.9-5.5-11.6-7.8-17.6c-1-2.6-2.3-3.1-4.7-3.1c-5.7,0.1-11.3,0-16,0c-1.2-1.8-1.7-3.5-2.7-3.8
	c-2.9-0.8-6-1-9.8-1.6c0,8.5,0,16.5,0,24.5c0,0.6,0.3,1.4,0.7,1.8c1.7,1.6,2.2,5.5,0.3,6.9c-2.1,1.6-1.1,2.7,0.3,3.6
	C292.6,617.1,297.5,622,297.9,628.9z M131.2,348.5c5.5,0,11.2-0.5,16.9,0.1c9.5,1,13.3-6.3,18.3-11.8c0.4-0.4,0.2-1.7-0.2-2.3
	c-1.1-2-2.4-3.9-3.9-6.5c1.7,1,2.8,1.6,3.9,2.3c6.4-4.4,4.9-11.3,5.1-17.1c0.1-3.4-2.9-7-4.6-10.8c0.3-0.3,1-1.2,1.7-2.1
	c-1.9-1-4.6-1.6-4.8-2.6c-0.5-3.6-3-5.6-5-8c-0.9-1.1-2.5-2.2-3.9-2.3c-8.7-0.4-17.5-0.6-26.2-0.8c-1,0-2.1,0.1-3,0.2
	c0,1.7,0,3,0,4.7c5.9-1,7.2,2.7,7.6,7.3c0.1,1.1,0.7,2.7,1.5,3.1c4.6,2.4,5.8,6.4,6,11.2c0.1,2.9,3,4.3,5.4,3.3
	c4.5-1.9,9-3.1,13.9-1.5c3.8,1.2,3.9,1.1,2.7,5.4c-0.3-1.5-0.5-2.6-0.8-4.2c-3.1,0-6.2-0.3-9.1,0.1c-3.1,0.3-6.1,1.1-9.1,2
	c-2.9,0.9-3.2,3.8-1.6,6.4c1.1,1.6,1.2,3.9,1.8,5.9c-1.1,0.2-1.4,0.4-1.8,0.4c-6-0.2-6-0.2-7.1,5.6c-1,5.4-1,5.4-6.4,5.8
	c-0.2,0-0.3,0.3-0.4,0.4C129,344.3,129.9,346.1,131.2,348.5z M153.4,257.5c7.5,0,14.4,0.6,21.2-0.2c4.5-0.5,8.9-2.5,10.3-8.3
	c0.5-2.1,3.3-3.9,5.4-5.3c1.4-1,3.5-0.9,5.2-1.6c3.1-1.2,3.6-3.2,1.5-5.8c-4-5-8.2-9.9-12.1-15c-1.1-1.4-1.6-3.4-2.1-5.2
	c-0.5-1.9,0.2-4.2-2.4-5.3c-0.2-0.1,0.4-2.5,1-3.6c0.5-0.8,2.3-1.2,2.4-1.8c0.2-3.2,1.6-6.9-2.5-9.3c-0.8,0.7-1.7,1.5-2.6,2.3
	c-5.9,5.7-11.8,11.5-17.9,17.1c-1.2,1.1-3.3,1.8-5,1.9c-3,0.3-6,0.1-8.8,0.1c-2,4,0.7,5.7,3,7.7c3.9,3.4,3.7,5-0.6,6.7
	c0,2.8,0,5.7,0,8.6c2.4,0.1,4.5,0.3,7.7,0.4c-0.6,2.2-1.1,3.9-1.5,5.7C154.9,250.3,154.2,253.9,153.4,257.5z M231.3,286.1
	c-2,0-4.1-0.3-6.1,0.1c-3.1,0.5-4.8-1.4-6.2-3.4c-1.9-2.7-3.8-2.8-5.8-0.3c-0.6,0.7-1.8,1.3-2.7,1.2c-4-0.3-6.3,2.3-8.5,4.9
	c-1.5,1.8-2.7,4-3.7,6.1c-1.7,3.4-4.2,6.9,0.4,10.1c0.4,0.3,0.3,1.1,0.4,1.7c0.3,2.3,0.5,4.5,0.7,6.9c1.7,0.2,3.4,1,4.7,0.6
	c6.3-2.1,12.4-1.3,18.7,0c3.6,0.8,7.5,0.3,11.3,0.1c2-0.1,4.1-0.8,5.8-1.8c2.9-1.8,5.9-3.7,8.3-6.1c5.4-5.5,10.5-11.3,15.6-16.9
	c-2.4-4.3-9.2-5.2-7.9-11.9c-3.3-0.3-6.6-1.5-9.2,1.8c-0.5,0.6-2,0.6-3.1,0.6c-2.3,0-4.6,0-6.9-0.3c-2.7-0.3-4.1,0.9-4.7,3.3
	C232,283.7,231.7,284.7,231.3,286.1z M186.4,269.6c0.5,0.1,0.9,0.3,1.4,0.4c0,1.5,0.2,3,0,4.4c-0.4,3.2,0.8,4.6,4,4.1
	c1.2-0.2,2.4-0.8,3.5-0.5c4.5,1,7.9-1,8.9-5.4c0.2-1,1-2,1.8-2.8c2.2-2.2,4.5-4.3,6.7-6.5c0.8-0.7,1.3-1.8,2.2-2.3
	c4.9-2.9,10.4-3.4,15.8-3.6c7.5-0.3,15,0.2,22.6,0.3c1,0,2.1-0.1,3.1-0.2c0-3.1,0-5.8,0-9.3c-7.7,0-15.2,0.2-22.7-0.1
	c-2-0.1-4.2-1.1-5.8-2.3c-4.5-3.5-4.3-3.5-9.2-0.5c-3,1.8-6.3,4.3-9.6,4.4c-6.8,0.1-11.8,3-16.2,7.6c-1.5,1.5-2.8,3.2-4.1,4.8
	c-0.4-0.5-0.9-0.9-1.3-1.4c3.3-3.1,6.3-6.8,10.1-9.1c2.1-1.3,3.6-1.9,3.5-4.4c-0.1-2.1-0.3-4.2-0.4-6.1c-3.5,1.3-6.2,2-8.5,3.3
	c-2.2,1.2-5.4,2.8-5.8,4.7c-1.5,6.5-6.4,8.4-11.6,9.4c-3.1,0.6-5.7,0.8-6.5,3.1c3.7,7.5,0.5,15.8,4.3,22c2.3-1.3,4.4-2.6,6.6-3.7
	C183.3,278,188.1,276.5,186.4,269.6z M278.5,460.1c-2,1.7-3.8,3-5.3,4.5c-2.1,2.1-4.5,2.8-7.5,2.8c-9.1,0-9.2,0.1-9.4,9.4
	c-0.1,4-1.1,7.1-4,10c-4.8,4.8-9.2,9.9-13.6,14.7c0.8,1.9,1.5,3.6,2,5.3c0.8,2.6,2.2,4,5.2,3.8c10.2-0.4,20.5-0.5,30.8-0.7
	c0.2,0,0.4-0.3,0.1-0.1c1.2-3.7,1.8-7.2,3.6-10c2.3-3.7-0.8-6.5-0.6-9.8c0-0.1,0.1-0.2,0.1-0.4c0.1-3,0.3-6,0.1-9
	c-0.1-2.1-0.3-3.7,2.3-4.5c1.9-0.6,2.8-6.8,1.1-7.4C279,467.6,279.7,463.8,278.5,460.1z M276.4,383.2c3.4-3.3,6.6-6.3,9.8-9.3
	c5.8-5.6,5.6-7.4-1.4-11.5c-1.1-0.7-2.3-1.3-3.5-1.9c-1.9-0.9-3.3-0.7-4.3,1.6c-3.5,7.4-11.9,10.3-19,5.9c-4.8-2.9-8.4-1.5-12.4,1.1
	c-1.2,0.8-2.6,1.5-3.5,2.5c-1.3,1.4-2.2,3.2-3.3,4.8c0.3,0.3,0.6,0.6,0.9,0.9c-1.6,0.7-3.3,1.4-4.1,1.7c2.1,5.8,4,11.6,6.4,17.2
	c2.3,5.5,4.3,11.5,10.9,13.5c1-1.5,1.7-3,2.9-4.1c6.7-6.3,12.8-13.2,20.9-17.9C278.9,386.1,278.8,384.8,276.4,383.2z M108.5,238.1
	c-4.3-1.2-7.3-0.2-10.1,2.2c-1.1,0.9-2.9,2.1-4,1.7c-2.9-0.8-3.8,1.1-3.9,2.9c-0.2,2.6,0,5.4,0.9,7.8c1.1,2.7,1.2,4.8,0.5,7.7
	c-0.7,2.9-1.1,5.4-3.4,7.4c-0.6,0.5-0.6,2.2-0.2,3.1c2.7,6.4,6.3,12.2,12,16.6c1.3,1,2.2,2.4,3.2,3.7c2.7,3.9,3.4,9.4,8.4,11.2
	c1.6-0.6,3.1-1.5,4.5-1.5c2.7-0.1,3.8-1.7,4.6-3.9c0.2-0.7,0.4-1.4,0.8-2c3-5,5.1-10.1,2.2-15.9c-0.4-0.8-0.9-1.6-1.5-2.4
	c-2.5-3.4-2.6-6.4,0.3-10c-3.9-0.8-8.3-0.5-11-2.5c-2.9-2.1-4.2-6.3-6-9.4C109.7,249.6,107.1,243.7,108.5,238.1z M153.5,252.1
	c0.4-2.1,0.4-3.2,0.8-4.2c0.3-1.1,1.3-2.2,1.2-3.2c-0.1-0.9-1.1-2.3-1.9-2.5c-5.7-0.9-5.7-0.9-5.6-6.5c0-1.7,0-3.3,0-4.9
	c1.5-0.5,2.5-0.9,3.6-1.3c-2.6-4.7-5.1-6.3-9.9-6.3c-6.5,0-13.1,0.1-19.6-0.1c-6.5-0.3-13-1-19.5-1.5c-0.9-0.1-1.8,0-2.9,0
	c0.3,3.6,0.6,6.7,0.8,9.8c0.2,3.6,1.6,5.7,5.6,4.9c0.9-0.2,1.9,0.1,3,0.3c0,4.6,0,9.1,0,14c2.6,0,4.9,0.1,7.1,0
	c8.8-0.3,17.5-0.6,26.2-0.9c1.4,0,2.9,0.1,4.3,0.5C149,250.6,151.1,251.4,153.5,252.1z M184.4,426.6c0-3.4,0-5.9,0-8.5
	c0-2.3,0.8-5-2-6.5c-2.7-1.5-4.5,0.4-6.5,1.7c-0.1,0.1-0.4,0-0.5,0c-2.2-5.3-5.9-10.5-0.2-15c-1.8-2.3-3.6-3.9-4.6-6
	c-1-2-2.2-2.5-4.2-2.4c-10.5,0.4-21.1,0.6-31.6,0.9c-0.2,0-0.4,0.2-1.3,0.7c0,2.5-0.2,5.4,0.1,8.3c0.1,1.4,1.1,2.8,2,3.9
	c1.9,2.3,4.1,4.3,6.1,6.4c0.6,0.6,1.3,1.3,2,1.8c6.6,4.5,14.3,7.6,18.4,15.2c0.4,0.7,0.9,1.4,1.8,2.5c3.3-2.3,6.6-4.5,9.8-6.8
	C175.8,428.6,180.4,425.3,184.4,426.6z M128.5,285.4c9,0,18.8,0,28.5,0c0.6-3.8,2.1-7.9-2.4-10.6c-0.2-0.1-0.3-0.6-0.4-1
	c-0.9-2.4-1.3-5.1-2.7-7.1c-1.4-2.1-1.1-3.4-0.3-5.6c1-2.6,1-5.4,1.4-8.1c-2.6-0.5-4.4-0.8-6.1-1.1c-1.4-0.3-2.9-0.9-4.3-0.8
	c-2.2,0.1-4.5,0.9-6.7,0.9c-7.4,0-14.8-0.1-22.2-0.4c-2.8-0.1-5,0.3-6,3.5c0.6,1.2,1.5,2.5,2.1,4c1.6,4.5,5.1,6,9.4,5.5
	c2.7-0.3,4.3,0.6,5.4,3.2c-1,0.9-2.1,1.9-3.3,3C123.3,275.4,125.7,280,128.5,285.4z M35.5,60.5c-0.9,4.4-1.9,8.9-2.7,13.4
	c-0.4,2.1-0.6,4.1,2.6,4.5c0.6,0.1,1.4,1.5,1.6,2.4c1.6,6,3.2,12,4.9,18.6c4.4,0,9.4,0,14.6,0c0,2.4,0,4.3,0,6.3c1.8,0,3.4,0,5.4,0
	c-0.3-2-0.5-3.8-0.7-5.6c-0.1-0.6-0.4-1.5-0.2-1.6c2.6-1.7,1.1-3.5,0.6-5.6c-0.7-3.1-2.4-6.2,0.4-9.6c1-1.2,0.6-4.2-0.1-6.1
	c-1.2-3.3-0.9-5.3,2.2-7.1C65,69.6,66,69,67,68.6c3.3-1.6,4.7-4,3.1-8.1C58.7,60.5,47.2,60.5,35.5,60.5z M168.1,303.3
	c3.3,4.1,5.7,8.4,4.5,13.9c-0.5,2.5-0.4,5.1-0.9,7.6c-0.3,1.5-1.2,3-2.3,4.1c-1.6,1.8-3.4,3.3-1.8,6.2c0.4,0.8-0.2,2.6-0.9,3.5
	c-2.6,2.9-5.4,5.6-8.2,8.4c-0.7,0.7-1.4,1.5-2.1,2.3c0.2,0.3,0.3,0.6,0.5,0.9c1.3-0.5,2.9-0.7,4-1.5c3.6-2.8,7.1-5.8,10.6-8.8
	c3-2.7,5.9-5.6,10.4-5.2c5.6,0.6,10.6-0.6,14.8-4.5c1-0.9,2.1-2.4,2.1-3.6c-0.1-6.1-0.6-12.2-1.1-18.3c-0.3-4-1.6-5.2-5.7-5.4
	c-4.2-0.3-8.5-0.5-12.7-0.8c-0.9-0.1-2-0.2-2.7-0.7C171.7,297.9,171,298,168.1,303.3z M256.3,230.5c-13.9,0.5-27.5,1-40.6,1.5
	c-0.9-2.1-1.6-3.7-2.5-5.9c-4.3,5.1-8.2,9.6-12,14c2.7,1.2,0.7,5.1,1.1,8.4c4.8,0.3,9.5,1,13.4-2.6c1.2-1.1,3-1.7,4.2-2.9
	c2.5-2.3,4.5-1.5,6.7,0.4c1.7,1.4,3.5,3.5,5.3,3.6c8.1,0.4,16.2,0.2,24.4,0.2C256.3,241.6,256.3,236.3,256.3,230.5z M142.7,328.8
	c-2.7-4.1-5.6-7.5-2.2-11.7c0-0.1-0.1-0.2-0.1-0.3c-0.5-1.9-0.7-3.9-1.4-5.8c-0.9-2.3-1.6-5.2-3.4-6.5c-3-2.2-4.3-4.5-4.5-8.1
	c-0.1-1.2-1.4-2.8-2.6-3.3c-1-0.4-2.8,0.1-3.8,0.9c-1.1,0.9-1.9,2.4-2.5,3.8c-1.1,2.4-2,4.2-5.2,4.7c-4.8,0.7-6.2,2.6-5.4,6.6
	c0.3,1.7,2.3,3.1,3.5,4.6c1.5,2.2,3.1,4.3,4.4,6.6c1,1.7,1.7,3.5,2.3,5.3c1.5,5.1,6.1,9.6,3.5,15.6c2.8-0.5,5.3-1,7.8-1.5
	c0.4-3.6,0.7-7.2,1.1-10.9C136.9,328.8,139.3,328.8,142.7,328.8z M275.1,306.1c0-1.6,0-2.7,0-4c0.9-0.1,1.9-0.2,3.3-0.4
	c-4.6-4.1-8.7-7.8-13-11.6c-3.7,3.9-7.3,7.5-10.7,11.3c-0.5,0.5-0.5,1.6-0.7,2.4c0.2,0.1,0.5,0.2,0.7,0.3c0.5-0.6,1-1.1,2.1-2.4
	c-1,2.9-1.7,4.8-2.3,6.9c-0.6,2.1-1,4.4-1.6,6.5c-0.9,3.1,0.9,6,4.1,6.7c1.1,0.2,2.2,0.9,3,1.7c4.1,4.5,9.6,4.9,14.4,5.9
	c2-3.3,3.7-6.2,5.3-9.1c0.4-0.7,0.8-1.7,0.6-2.3c-1.8-3.5-3.9-6.9-2.8-11.3C276.5,306.4,275.7,306.2,275.1,306.1z M136.7,360.9
	c0.9,1.9,1.7,4.3,2,4.3c3.4-0.6,3.3,2.5,4.7,4c1,1,2.4,2.4,3.4,2.2c3.7-0.5,7.6-1,10.9-2.5c3.3-1.5,7.6-3.7,8.5-6.6
	c1.6-4.8,0.9-10.4,1.2-15.7c-2,0.8-3.1,2.3-4.5,2.9c-2.1,0.9-5.4,2.4-6.5,1.5c-2.5-1.8-4.7-1.1-7.1-1.1c-5.5-0.2-10.9-0.3-16.4-0.3
	c-1.3,0-2.7,0.1-3.8,0.7c-2.6,1.4-5.1,3.1-8.3,5c5.4,3.5,11.7,5.2,15.6,10.4C136.7,364.3,136.7,362.9,136.7,360.9z M132.1,389.8
	c2.3-0.3,3.7-0.4,6.1-0.7c-4.3-3-7.9-5.2-11.3-7.9c-2.4-1.9-4.3-4.3-7.5-7.5c-3.4-0.6-3.6-0.6-4.5,4.5c-0.4,2.1-0.9,5.5,0.1,6.3
	c5.4,4.3,4.2,10.2,4,15.4c-0.2,4.7-0.3,8.8,2.7,12.7c0.5-0.1,1.4-0.1,1.9-0.5c3-2.2,6.1-4.4,9-6.7c0.4-0.3,0.7-1.3,0.6-1.9
	C132.9,399,132.5,394.5,132.1,389.8z M160.9,426.7c-3.1-2.8-5.6-5.5-8.6-7.7c-4.8-3.4-10.6-5.6-13.8-11c-0.3-0.5-0.8-0.9-1.2-1.4
	c-1.2-1.6-2.2-1.6-3.9-0.3c-3.9,3-8,5.6-12.1,8.5c1.3,4.2,4.7,6.5,8.8,8.3c1.9,0.8,4,1.5,5.4,2.9c2.4,2.5,4.4,2.4,7.2,0.7
	c3.6-2.2,4.8-1.7,6.7,2.2c0.7,1.4,1.2,2.8,2,4.7C154.4,431.4,157.3,429.3,160.9,426.7z M368.5,643.3c-9.1,0-17.8,0-27.9,0
	c5.9,3.9,6.3,8.1,2.4,12.4c2.9,1.6,5.3,3,6.8,3.8c3.4-1.2,6.1-2,8.7-3c1-0.4,2.3-0.6,2.8-1.4C363.7,651.4,366,647.5,368.5,643.3z
	 M119.3,372.5c2.1,0.3,3.6-0.3,3.6-3c0-2.5-2.7-5.2-5.2-4.9c-1.1,0.1-2.9,1.3-3,2.1C114.3,370.8,115.7,372.4,119.3,372.5z
	 M125.9,351.1c0.1-0.5,0.2-1,0.4-1.5c-1.9-0.7-3.8-1.4-5.7-2.1c-0.2,1.9-0.4,3.9-0.7,6.6C122.6,352.8,124.3,352,125.9,351.1z
	 M123,373.4c-0.3,5.3,4.1,5.9,7.4,8.6C130.2,376.6,125.7,376,123,373.4z"/>
<path class="st0" d="M393.6,634.8c-1.6,6.1-3,6.7-12.7,6.1c1.6-2.2,3.2-3.9,4.3-6c1.1-2.3,2.5-4.9,2.3-7.2c-0.3-2.9,0.4-5,2-7.4
	c0.7-1,0.6-2.7,0.4-4.1c-0.3-2.3-1.1-4.5-1.2-6.8c-0.2-3.2,0-6.5,0-9.8c-0.1-3.8-0.3-7.5-0.3-11.3c0.1-23,0.2-46.1,0.3-69.1
	c0-2.8,0-5.5,0-8.6c7.9-0.3,15.4-0.7,22.9-1c4.7-0.2,9.1-0.7,13.7-2.2c6.3-2,13.3-2.6,20-2.8c16.9-0.4,33.9-0.2,50.8-0.1
	c1.8,0,4.1,0.8,5.4,2c18.9,16.9,37.8,33.9,56.5,51c1.2,1.1,1.9,2.9,2.2,4.5c0.8,5.5,2.6,10.4,6.8,14.5c2.3,2.2,4.1,5.1,5.6,7.9
	c1.7,3.1,2.8,6.4,4.3,9.6c2,4.5,5.2,7.7,9.9,9.6c7.5,3,8.2,7.4,1.9,12.6c-6.6,5.5-13.7,9.4-22.9,9.3c-12.4-0.2-24.8,0.4-37.1,0.9
	c-1.7,0.1-3.3,1.4-5,2.1c-1,0.5-2.1,1.3-3.2,1.3c-23.9,1.1-47.8,2.1-71.6,3C430.6,633.5,412.2,634.1,393.6,634.8z M442.2,576.9
	c-1.1,0-2.2,0-3.4,0c0,2,0,3.7,0,5.8c1.5-0.1,2.7-0.3,4.4-0.4C442.8,580.3,442.5,578.7,442.2,576.9z"/>
<path class="st1" d="M323.2,391.6c15.6-0.1,30.9,0.2,46.2-0.5c5.8-0.3,9.2,2,12.9,5.4c37.6,34.7,75.3,69.4,113,104.1
	c0.6,0.6,1.1,1.2,2.1,2.2c-1.6,0.1-2.6,0.2-3.6,0.2c-18,0.1-35.9,0-53.9,0.3c-4.5,0.1-9,1.3-13.5,2c-5.3,0.8-10.7,2.2-16,2.4
	c-13.3,0.6-26.7,0.8-40,1.1c-0.7,0-1.4-0.1-2.6-0.2c2.6-5.7,0.9-10.7-1.7-15.6c-0.6-1.2-0.1-2.9-0.5-4.3c-0.7-2.5-1.7-4.9-2.5-7.3
	c-0.6-1.9-1.7-3.9-1.5-5.7c0.5-4.6-2.1-7.6-4.2-11.2c-3-5.1-5.5-10.6-8.2-15.9c-0.1-0.3,0-0.7,0.1-1c1.5-3.6,0-5.3-4-5.4
	c0.2-1,0.3-1.8,0.6-2.5c2.4-7.2-0.2-13.5-4-19.1c-1.9-2.8-5.7-4.5-8.8-6.3c-2.6-1.5-3.7-3.3-3.1-6.1c0.6-2.7-0.4-4.4-2.7-6
	C323.9,399.8,323.1,397.6,323.2,391.6z"/>
<path class="st2" d="M285.2,574.6c-0.3-4.3-0.6-8.3-0.9-12.7c-4,0-7.7,0-11.8,0c0-4.6,0-8.8,0-13.3c-2.5-0.2-4.7-0.3-7-0.4
	c-0.9-2.3,0.2-5.7-3.5-6.7c-0.6-0.2-0.4-3.3-0.5-4.1c-3.9-2.6-7.3-4.7-10.5-7c-0.8-0.6-1.6-2-1.6-3c0.3-3.8-1.5-5-5.2-4.7
	c-0.3-3.6-0.6-7-0.9-10.6c0.8-0.1,1.4-0.2,2-0.2c21.9,0,43.9,1.1,65.7-0.3c18.3-1.2,36.5-0.7,54.7-1.3c6.1-0.2,12.1-0.2,18.2-0.2
	c0.9,0,1.9,0.1,3.4,0.3c0,8.9,0,17.6,0,26.3c0,12.1,0.1,24.3,0.1,36.4c0,5.9,0,6-5.8,6.1c-25.6,0.4-51.2,0.9-76.8,1.2
	c-2.8,0-5.6,0.6-7.8-2.9c-1.1-1.8-5.5-1.7-8.4-2.3C287.7,574.7,286.6,574.7,285.2,574.6z"/>
<path class="st3" d="M573.1,626.2c-0.6,5.8-1.2,11.4-1.6,17c-0.1,1.8-0.1,3.8,0.7,5.3c1.4,2.7,1.1,5.2,0.1,7.7
	c-1.5,4-3,7.9-4.9,11.7c-1.2,2.4-3,4.2-6.2,4.3c-47.7,1.1-95.4,2.4-143.1,3.5c-2.4,0.1-4.9-0.8-7.2-1.5c-3.4-0.9-6.8-2.1-10.3-3.1
	c-2.2-0.6-2.9-2.2-1.4-4c0.8-1,1.8-1.8,3.2-3c-4.7,1.4-5.6,2.9-4.9,7.1c0.1,1-0.5,2.2-1.1,3c-0.8,1.2-2,2.1-2.8,3.2
	c-1.4,1.8-3,2.5-4.9,0.8c-3.1-2.9-6.2-5.8-9-9c-1.8-2-3.4-3.4-6.2-2c-3.5-3.9-6.9-7.7-11-12.3c2.1-3.1,4.9-7.1,7.6-11
	c0.3-0.4,0.9-0.9,1.5-0.9c5.7-0.4,11.5-0.7,17.3-1c-1.8,6.9-0.2,9.8,7.2,12.4c-1.1-0.9-2.1-1.9-3.2-2.7c-4.6-3.7-4.9-6-1-10.8
	c0.4-0.5,1.2-0.8,1.3-1.2c1.2-4.9,5.1-4,8.6-4.2c29.8-1,59.7-2,89.5-3.1c9.3-0.3,18.7-0.8,28-1.6c2.1-0.2,4-1.6,6-2.4
	c0.7-0.3,1.5-0.9,2.2-0.9C542.7,627.1,557.9,626.7,573.1,626.2C573.3,626.2,573.5,626.4,573.1,626.2z M378.8,661.2
	c2.1-1.3,2-3.2,0.6-4.8c-0.6-0.7-3-1-3.3-0.5c-0.8,1.2-0.9,2.8-1.3,4.3c1.4,0.3,2.8,0.6,4.1,0.9L378.8,661.2z M474.8,656.5
	c-0.4-6.7-0.5-6.8-4.7-5.5c0,1.6,0,3.2,0,5.1C472.1,653.1,472.8,653.1,474.8,656.5z"/>
<path class="st4" d="M101.3,132.4c-4.1-0.7-7.4-0.9-9.6-3.9c-0.6-0.8-2.4-0.6-3.7-0.9c-1.3-0.4-2.8-0.6-3.8-1.4
	c-2.3-1.7-4.6-3.6-6.6-5.7c-2.5-2.6-2.8-6-2.6-9.5c0.2-5.2,0.1-5.2-5-5.3c-2,0-4.1,0-7.2,0c0.5-3.1,1-5.7,1.3-8.2
	c0.2-1.5,0.5-3.4-0.1-4.6c-1.6-3.1-0.9-5.8-0.2-9c0.7-3-0.3-6.5-0.5-9.7c-0.4-0.1-0.8-0.2-1.2-0.4c1.5-1,2.8-2.5,4.4-2.9
	c5.2-1.4,7.2-4.6,6.1-10.5c36.1,1,71.9,2,107.5,3.1c0,19.9,0,39.3,0,59.1c-2.5,0-4.4,0-6.3,0c-11.9-0.2-23.8-0.2-35.7-0.8
	c-3.1-0.1-6.2-1.9-9.7-3c-0.5,0.5-1.3,1.4-2.7,2.9c-1.1-5.3,3.2-11.1-3.6-14.6c-3.2,2.7-6.7,5.6-10.2,8.5c-0.2,0.2-0.4,0.4-0.4,0.6
	c-1.2,4-2.8,6.8-7,2.4c-0.2-0.2-1.4,0.4-2,0.8C97.7,123.1,96.6,127.3,101.3,132.4z"/>
<path class="st5" d="M292.4,447.1c-0.1,2.1-0.2,3.9-0.3,5.7c-0.2,0.2-0.4,0.5-0.6,0.5c-6.1-0.5-10.8,2.3-14.6,6.6
	c-4.6,5-9.9,7.4-16.7,6.4c-1.3-0.2-2.6,0.1-4.4,0.2c-0.2,4.4-0.4,8.7-0.7,13c-0.1,1.2-0.2,2.6-0.9,3.4c-5.4,6-10.9,12-15.7,17.2
	c-3-1.2-5.5-1.9-7.6-3.3c-3.8-2.3-7.5-4.9-11-7.7c-1.9-1.6-3-3.7-1.1-6.7c2-3.2-1-4.9-3.9-6.5c1.5-1.2,2.9-2.2,4.3-3.2
	c4.7-3.3,5.3-8.6,1.4-12.7c-5.4-5.7-10.8-11.4-15.7-16.7c6.6-6.9,12.9-13.5,19.3-20.3c1.5,4,2.9,7.7,4.4,11.3
	c2.6,6.1,7.5,8.2,14,6.4c6.6-1.9,13.3-3.6,19.8-5.7c1.9-0.6,4.2-2,5-3.7c2.1-4.2,5.5-7,9.1-9.6c4-2.9,7.4-6.5,12.5-7.9
	c4.4-1.2,3.4-6.1,4.6-9.5c0.8-2.2,1.2-4.8,2.6-6.6c4.1-4.9,8.7-9.4,13.4-14.4c4,2.8,7.9,5.4,11.7,8.1c0.6,0.4,0.8,1.7,0.7,2.6
	c-0.5,4.4,2,7,5.1,9.3c1.7,1.3,2.4,2.5,1.8,4.6c-1,3.5,0.5,5.6,3.6,7.2c5.3,2.8,10.5,6,11.7,12.5c0.7,3.8,0.6,7.8,0.3,11.6
	c-0.1,0.9-2.6,2.3-4.1,2.3c-8.6,0.2-17.2,0.1-25.8,0c-2.5,0-4.2,0.1-4.3,3.3c0,0.7-1.9,2-2.9,2C302.4,447.3,297.6,447.1,292.4,447.1
	z"/>
<path class="st6" d="M367.1,508.9c-11.2,0-21.5,0-31.8,0c-5.8,0-11.9-1-17.4,0.3c-12,2.8-23.9,0-35.8,0.9c-0.9,0.1-1.9-0.1-3.9-0.3
	c1.2-3.6,2.4-6.8,3.4-10c0.4-1.3,0.9-2.8,0.9-4.1c-0.3-5.3-0.9-10.5-1.2-15.8c0-0.7,0.4-1.9,0.9-2.1c4.9-1.5,2.4-5.7,3.1-8.6
	c0.1-0.4-0.7-1.4-1.2-1.5c-4.2-1.1-4.3-5.2-3.8-7.6c0.4-2,3.7-3.9,6.1-5c1.9-0.9,4.5-0.4,7-0.5c0.2-2.2,0.3-4.1,0.4-6.2
	c5.7,0,11.2,0,16.9,0c0.5-1.8,0.9-3.4,1.3-4.9c12.1,0,24.1,0,36,0c0.4,9,3.6,16.2,9,22.6c2.2,2.7,3.8,5.7,3.4,9.6
	c-0.2,2.1,1.1,4.4,1.9,6.6c0.5,1.3,1.8,2.6,1.8,3.9c-0.1,4.6,1.8,8.6,3,12.9C367.8,502.1,367.1,505.4,367.1,508.9z"/>
<path class="st7" d="M257.1,125.1c0,34.8,0,69.2,0,103.8c-1.5,0-2.8,0-5,0c0-4.8,0-9.6,0-14.4c0-0.9,0-2.4-0.5-2.6
	c-3.4-1.6-3.8-4.5-4.3-7.8c-0.2-1.3-2.2-2.7-3.7-3.4c-4.9-2.2-9.5-4.7-12.7-9.3c-0.1-0.2-0.2-0.5-0.4-0.6c-3.4-1.6-6.6-3.7-10.2-4.6
	c-4.9-1.2-9.1,2.2-10,7.2c-0.4,0.4-0.7,0.7-1.1,1.1c-0.6-1.2-1-2.6-1.9-3.3c-0.6-0.4-2.1,0.3-3.5,0.5c-5.2-4.3-3.5-9.6-1.2-15.3
	c-4.7,0-9.3,0-13.9,0c0-5.9,0.2-11.5-0.1-17c-0.2-5.3,1-10.4-0.7-16.1c-1.8-5.7-0.4-12.5-0.4-19.4
	C211.1,124.3,234,124.7,257.1,125.1z"/>
<path class="st4" d="M564.2,699.5c1.8,0.2,3.1,0.2,4.4,0.5c2.1,0.5,5.5,0.4,6.1,1.7c1.8,3.5,2.9,7.2,1.2,11.7
	c-2.1,5.6-5.4,7-10.9,7.6c-26.1,3-52.2,6.5-78.3,9.8c-1.9,0.2-3.8,0.3-6.6,0.6c0-9-1.8-18.2,0.5-26.2c2.9-9.9,0.2-19.5,2.1-29.7
	c26.2-0.7,52.5-1.4,77.9-2c1.4,4.1,2.6,7.5,3.6,11c0.4,1.3,0,2.8,0,4.2C564.2,692.3,564.2,695.9,564.2,699.5z"/>
<path class="st8" d="M257.3,65c0,19.7,0,39.1,0,58.8c-25.5-0.4-50.6-0.9-75.7-1.3c0-19.8,0-39.3,0-59.3
	C207.2,63.8,232.2,64.4,257.3,65z"/>
<path class="st9" d="M481.4,675.6c0,8.2,0,15.8,0,23.4c0,0.5,0.1,1.2-0.2,1.4c-3.9,3-2,7.1-2.1,10.8c-0.1,6.7,0,13.3,0,20.6
	c-19.3,3.1-38.9,6.3-58.8,9.5c-0.3-2.2-0.5-4.2-0.8-5.9c1.5-0.4,2.6-0.8,3.8-1.1c-0.5-1.1-0.9-2.5-1.7-3.4c-1.6-1.7-3.3-3.3-5.2-4.6
	c-1.3-0.8-3-1-4.8-1.5c0.1-0.1,0.7-0.7,0.9-1.4c0.2-0.8,0.1-2.4-0.1-2.4c-4.2-1.1-1.5-2.8-0.7-4.7c0.7-1.6,1-3.7,0.6-5.3
	c-3.2-12.2-10.8-21.6-20.1-30.6c2-1.9,4.5-3.5,5.9-5.8c1.9-3.1,5-2.6,6.6-1.5c10,6.6,21,3.8,31.7,3.7
	C451.1,676.6,465.7,676,481.4,675.6z M443.5,698.5c2.4-0.5,2.9-2.4,2-4.1c-0.7-1.2-2.6-1.6-4.7-2.8c0,2.6,0,3.9,0,5.2
	c0,2.3,1.2,2.3,2.8,1.6L443.5,698.5z"/>
<path class="st10" d="M186.4,123.5c0,7.5-1.2,14.3,0.3,20.5c2.5,10.2-0.4,20.1,0.5,30c0,0.6-0.1,1.2-0.2,2.2c-1,0.1-2.1,0.2-3.1,0.2
	c-4.7-0.1-9.5-0.4-14.2-0.4c-6.4,0-12.7-0.2-19.1,1.4c-5.8,1.5-11.9,2.1-17.9,2.8c-1.7,0.2-3.5-0.3-5.2-0.9
	c-3.6-1.3-6.8-0.5-10.2,0.8c-2.1,0.8-4.4,1.5-6.6,1.3c-4.3-0.4-8.4-0.9-12.5,1.3c-1,0.5-2.7-0.3-5-0.7c1.1-1.8,1.5-3.6,2.6-4.4
	c4.1-3.2,8.5-6.1,12.8-9.1c3.7-2.6,4.1-4.3,3.1-8.7c-0.3-1.4,0.6-3.2,1.1-4.7c0.8-2.2,1.8-4.2,2.6-6.3c0.1-0.2-0.2-0.6-0.1-0.7
	c4.7-2.4,3-8.2,6.2-11.6c1.4-1.5,1.9-3.9,2.8-5.9c-0.3-0.2-0.6-0.5-0.9-0.7c0.8-0.2,1.5-0.5,2.3-0.6c2.5-0.4,3.3-1.2,1.9-3.9
	c-0.7-1.3,0.4-3.5,1.3-5.5c4.9,5.3,10.9,3.4,16.4,3.5C158.8,123.6,172.3,123.5,186.4,123.5z"/>
<path class="st10" d="M97.8,287.5c-5.5,4.4-11.6,4-17.8,4.2c-5.2,0.2-10.4,0.6-15.6,1c-4.6,0.4-5.9-1.1-8.4-4.6
	c-3.4-4.6-5-8.5-2.4-14.3c0.9-2.1-0.9-6.3-2.7-8.5c-3.6-4.2-4.1-8.6-3.2-13.6c0.6-3.3,1.4-6.7,1.7-10c1.1-10.8-0.7-20.9-7.2-29.9
	c-1.5-2-2.7-4.2-4.2-6.5c8.5,0,16.6-1.1,24.2,0.3c8.7,1.6,17.3,0.8,25.9,1.9c2.7,0.3,5.5,0.4,8.3,0.8c2.2,0.3,3,1.6,1.4,3.5
	c-2,2.5-1.9,4.7-0.4,7.6c1.2,2.3,1.2,5.4,1.7,8.1c0.4,2.6,0.8,5.3,1.2,7.9c0.3,1.7-3.3,5-5.6,4.9c-4.6-0.1-6.9,2.4-6.3,7
	c0.2,1.4,0.5,2.9,1.1,4.2c2.8,5.3,0.7,9.7-1.7,14.5c-1.1,2.3-0.9,6.1,0.2,8.5c1.9,4,5,7.4,7.7,10.9C96.3,286.4,97.2,287,97.8,287.5z
	"/>
<path class="st11" d="M237.6,376.5c-3.2,1.7-5.6,1.4-7.8-1.4c-2.9-3.5-6.3-6.8-9.4-10.1c-0.2-0.2-0.2-0.4-0.2-0.4
	c4.6-6.2,9.2-12.3,13.8-18.3c0.8-1,1.4-2.2,2.1-3.3c-0.3-0.3-0.7-0.7-1-1c-0.4,0.8-0.7,1.6-1.2,2.3c-1.9,2.4-3.9,4.6-5.7,7.1
	c-1.2,1.6-1.9,3.6-3.1,5.1c-1.8,2.4-3.8,4.5-6.1,7.1c-6-8.4-14.8-14.5-16.4-25.7c3.5,0.2,5.8-0.4,6.9-3.5c0.4-0.9,2.1-1.4,3.3-1.9
	c2.7-1,5.5-1.9,8.2-2.9c1.1-0.4,2-1.2,2.7-2.3c-4.3,1.5-8.5,2.9-12.7,4.5c-1.1,0.4-2.3,1.2-2.8,2.1c-1.5,3.2-4.5,3.3-6.7,2.4
	c-1.1-0.5-1.6-3.7-1.6-5.7c-0.2-5.1-0.1-10.1-0.1-14.7c4.8-0.8,8.6-1.5,12.5-2.1c1.2-0.2,2.6-0.4,3.6,0.1c6.7,2.8,13.6,1.6,20.4,1.3
	c1.9-0.1,3.9-1.3,5.5-2.4c3.7-2.6,7.1-5.6,10.7-8.4c2.8,5.4,0,11.8-5.6,12.9c-3.7,0.7-7.4,1.5-11.1,2.2c0.1,0.3,0.1,0.7,0.2,1
	c5.1-0.9,10.2-1.8,15.1-2.7c1.5,2.5,1.1,4-0.8,5.6c-3.4,3-6.6,6.2-9.9,9.4c0.2,0.3,0.5,0.5,0.7,0.8c3.2-3,6.2-6.1,9.7-8.8
	c1.5-1.1,3.9-1.2,5.8-1.7c0.4-0.1,1.1,0.1,1.3,0.4c4.1,5.1,10.1,6.1,16,7.2c0.7,0.1,1.4,1.2,1.6,2c1.8,7.2,5.5,12.2,13.4,13.4
	c1.3,0.2,2.6,2.5,3.2,4.2c1,3,0.4,6.4,4,8.7c1.5,0.9,1.6,4.7,1.6,7.1c0,2.1-3.9,2.9-5.6,1.5c-3.2-2.7-6.4-5.5-9.8-7.9
	c-3.6-2.5-4.3-2.2-6.5,1.5c-4.3,7.2-9,8.8-16.8,5.6c-0.1,0-0.2-0.1-0.3-0.1c-5.1-2.5-9.8-2-14.3,1.4c-1.6,1.3-3.3,2.5-5.1,3.5
	C237.3,372.7,236,374.1,237.6,376.5z M209.1,324c-0.6-1.4-1.2-3.1-2.3-5.8c-1.1,2.7-1.8,4.3-2.4,5.8C205.9,324,207.3,324,209.1,324z
	"/>
<path class="st12" d="M27.1,156.3c1-1,2-1.9,2.9-2.9c1.9-2.1,3.7-4.3,5.5-6.4c1-1.2,3.1-2.5,2.9-3.5c-0.2-1.3-2.2-2.2-2.9-2.9
	c-0.3-4.7-0.7-9.3-1-13.9c0-0.6-0.3-1.5,0-1.7c3.9-2.9,3.6-7.5,4.6-11.5c1-4.1,1.4-8.4,2-12.7c4.5,0,9.2,0,14,0c0,2.3,0,4.2,0,6.4
	c5.9,0.3,11.7,0.5,17.1,0.8c1,4.5,1.9,9,3,13.9c-0.7,1.7-1.9,3.9-2.7,6.3c-0.3,0.8,0.7,1.9,0.8,2.8c0.1,1.6,0.6,3.7-0.2,4.8
	c-1.1,1.5-2.5,3.7-5.4,2.2c-1-0.5-3.1-0.2-4,0.6c-0.7,0.6-0.9,3.2-0.4,3.7c2.8,2.5,2.8,6,2.7,9c-0.2,16.9-0.8,33.7-1.4,50.5
	c0,0.8-1.5,2.1-2.3,2.1c-7.8,0-15.5-0.1-23.3-0.5c-1.4-0.1-2.8-1.8-3.9-3c-1.5-1.7-2.5-4-4.2-5.4c-2.9-2.4-6.2-4.2-9.2-6.5
	c-2.1-1.6-2.7-3.7-2-6.4c0.4-1.6,0.2-3.6-0.3-5.3c-1.5-5,0.9-13.9,4.8-17.3c1-0.9,1.7-2.1,2.6-3.1C26.8,156.3,26.9,156.3,27.1,156.3
	z M28.7,169.2c-1.8,4.2-3.2,3.5-4.5,0.9c0,1.7,0,3.3,0,4.5c0.7-0.6,1.4-1.6,2-1.6c0.8,0,1.6,1,2.5,1.6
	C28.7,173.2,28.7,171.9,28.7,169.2z"/>
<path class="st13" d="M204.7,370.3c0-7.2,0-13.9,0-21.2c8.8,9.9,17.1,19.2,25.7,28.9c-2.9,1.6-5.7,3.1-8.5,4.6
	c-6.6,3.5-13.3,7-19.9,10.5c-0.9,0.5-1.9,1.5-2,2.3c0,4.4-3.2,6.6-6,9.1c-2.8,2.5-5.6,5.1-8.5,7.7c-2.8-2.6-5.8-3.8-9.1-1
	c-3.7-5-3.6-7,0.1-11.4c0.6-0.7,0.5-2.9-0.2-3.7c-2-2.5-4.3-4.6-7-7.4c3.2-1.2,5.3-2.1,7.5-2.9c-0.1-0.3-0.2-0.6-0.3-0.8
	c-1.8,0.5-3.6,1-5,1.4c-1.4-1.5-2.6-2.8-4.2-4.6c0.6,2.7,1.2,4.4,1,5.9c-0.1,0.5-2.5,0.9-3.8,0.9c-4.5,0.1-9-0.2-13.5-0.1
	c-3,0.1-6,0.8-9.1,1.1c-3.4,0.3-4.4-2.1-5.1-4.9c-1-3.7-2.1-7.4-3.6-10.8c-0.6-1.5-2.4-2.6-3.9-3.5c-2.4-1.5-3.5-3.2-2.7-6.1
	c0.3-1.1-0.3-2.4-0.7-4.7c1.9,1.2,3.5,1.9,4.7,3c2.5,2.4,4.3,5.6,8.7,5c0.8-0.1,2.2,1.3,2.7,2.3c1.4,2.8,3.4,3.5,6.2,2.8
	c6.2-1.4,12.7-2.1,17.7-7.3c0.2,3.3,0.3,6,0.4,8.6c0.5,0,1.1,0,1.6,0c0.3-3.5,0.6-7,0.7-10.5c0.2-4.8,0.1-9.7,0.2-14.5
	c0.1-6.3,6.1-13.3,12.3-13.2c6.1,0.1,11.8-0.3,15.9-4.5c1.5,2.6,3.1,4.7,3.9,7.1c1.2,3.3,2.4,6.7,2.6,10.2c0.3,4.3-0.5,8.7-0.7,13.1
	c-0.1,0.8-0.2,1.7,0.1,2.5c1.7,4.5,1.3,5.5-3.3,5.5c-5.4,0-9.4,2.2-12.4,6.8C191.9,371,198.1,370.7,204.7,370.3z"/>
<path class="st8" d="M386.5,581.5c0,5.3,0,10.7,0,16c0,5.2,0.1,10.4,0.3,15.6c0,0.9,0.2,2.2,0.8,2.7c1.9,1.7,0.9,3,0.2,4.7
	c-0.9,2.2-2,4.5-1.9,6.8c0.3,5.6-4.3,8.1-7,11.7c-0.4,0.5-1.8,0.3-2.8,0.4c-11,0-22.1,0.1-33.1-0.1c-1.4,0-2.7-1.3-4.1-1.5
	c-3-0.5-6.1-1-9.1-1c-2.1,0-4.3,1-6.4,1.1c-2.7,0.1-5.5-0.2-8-0.3c-0.5-1.1-0.9-2.1-1.2-2.9c4-6.3,10.7-7.1,16.2-8.2
	c1.2-2.6,2.3-4.5,3-6.6c0.3-0.9,0.1-2.1-0.3-3c-2.9-6.9-6-13.7-9-20.5c-0.2-0.5-0.4-1.1-0.6-1.7c-1.1-2.9-2.2-5.7-3.3-8.6
	c-0.5-1.3-0.9-2.6-1.6-4.6C341.6,581.5,364,581.5,386.5,581.5z"/>
<path class="st11" d="M165.8,493.8c-5.3-5.4-6.5-13.3-14.5-15.7c-3.1-0.9-5.3-3.1-3.6-6.9c0.3-0.6,0.2-1.5,0-2.1
	c-1.6-4.4-3.6-8.6-4.9-13.1c-0.4-1.5,0.8-3.5,1.3-5.4c5,2.7,4.2,2.3,6.4-2.2c2.1-4.3,1.8-8.5,2.3-12.9c0.1-1,1.2-2,2.1-2.7
	c2-1.6,4.1-2.9,6.3-4.5c0.5,0.9,1.3,1.5,1.2,2.1c-0.5,3.9,3.1,5.7,4.6,8.5c1.2,2.2,4,3.4,3.5,6.6c-0.1,0.5,1.5,1.4,2.4,2
	c3.4,2.3,6.4,4.8,6.5,9.4c0,0.7,0.3,1.7,0.7,1.9c7.4,3.4,10.8,10.4,15.3,16.4c0.1,0.2,0.3,0.4,0.3,0.4c1.7-0.7,3.2-1.5,4.7-2
	c0.7-0.2,1.7,0,2.3,0.5c2.6,2.2,5.1,4.5,7.6,6.7c1.5-1.3,2.5-2.8,3.6-3c1-0.2,2.6,0.8,3.2,1.8c0.5,0.7,0.3,2.4-0.3,3.1
	c-1.5,1.8-1.2,3.1,0.1,4.8c2.4,3.4,4.9,6,9,8c4.5,2.2,10,3.9,12.3,9.3c0.8,1.7,1.5,3.5,2.2,5.1c-10.3,0-20.2,0.1-30.1,0
	c-9.8-0.1-19.7-0.2-29.5-0.4c-5.5-0.1-10-4.1-10.9-9.4c-0.1-0.7-0.5-1.4-0.5-2.1C169.1,494.9,167.7,493.6,165.8,493.8z"/>
<path class="st14" d="M261.1,542.2c0.9,1.3,2.4,2.5,2.5,3.8c0.1,2.8,1.1,4,3.9,3.6c1-0.1,2.1,0.1,3.5,0.1c0,4.3,0,8.3,0,12.8
	c4.2,0.2,8.1,0.5,12.2,0.7c0.2,3.5,0.4,6.8,0.6,10.9c-6.4-2.5-12.4-4.8-18.4-7.3c-4.8-2-9.4-4.3-14.2-6.1c-1.4-0.5-3.4-0.1-4.8,0.6
	c-3.3,1.7-6.3,3.9-9.5,5.9c-0.3-0.3-0.6-0.5-0.9-0.8c0.2,1.8,0.3,3.5,0.5,5.6c-6.3-4.1-12.8-5.7-20.9-2.4c0.8-2.3,1-3.9,1.9-5.1
	c1.2-1.8,1.4-3-0.6-4.2c-0.4-0.2-1-0.8-0.9-1c0.9-4.3-2.5-3.7-4.9-4.5c-3.2-1-6.3-2.2-9.8-3.4c2.1-2.8,4.7-4.8,4.9-7
	c0.3-2.3-1.8-4.8-3-7.6c0.3,0.2,0.1-0.1-0.1-0.1c-5.9,0.5-8.9-2.5-11-7.8c-1.7-4.5-4.9-7.8-10-7.3c-1.5-3.8-2.8-7.3-4-10.6
	c9.2,0,18.5-0.1,27.8,0c10.9,0.1,21.8,0.6,32.7,0.7c2.8,0,3.7,1.2,3.8,3.6c0.1,2.5,0,5.1,0,7.7c1.4,0.4,2.7,0.4,3.7,1
	c0.9,0.5,2,1.5,2,2.3c0,5.6,4.6,7.5,8.2,9.7C259.8,538.3,260.1,537.7,261.1,542.2z M209.8,535.7c-2.2,1.2-2,3.1-0.6,4.4
	c0.8,0.7,3.3,1,3.7,0.4c0.8-1,0.6-2.8,0.9-4.2c-1.4-0.2-2.8-0.3-4.2-0.5L209.8,535.7z M216.1,535.5c-0.3,0.2-0.6,0.4-0.8,0.6
	c0,1.5,0,3,0,5.5c1.6-0.9,2.7-1.5,3.7-2.2C218.1,538.1,217.1,536.8,216.1,535.5z"/>
<path class="st2" d="M96.9,206.6c-9.7-0.5-20-1-30.6-1.5c0.3-6.6,0.7-13.2,0.8-19.7c0.3-10.9,0.5-21.8,0.6-32.7
	c0-2.9-0.4-5.8-0.9-8.6c-0.2-1.1-1.2-2.1-2.3-3.9c1.4-0.2,2.5-0.6,3.6-0.5c5.2,0.5,8.6-3.8,6.9-8.8c-0.5-1.4-0.7-3.2-0.2-4.5
	c0.5-1.5,1.9-2.6,2.9-3.9c1.2,1,2.6,1.8,3.6,3c1.8,2.1,3.6,3.9,6.7,3.6c1.2-0.1,3.1,0.2,3.6,1c1.9,3.3,5.1,3.2,8.1,3.8
	c0.7,0.1,1.9-0.1,2.2-0.6c0.4-0.7,0.4-1.8,0.1-2.6c-2.6-6.1-2.6-6,2.5-10.7c3.9,3.8,5,3,8-1.7c2.4-3.7,6.4-6.3,9.4-9.2
	c4.3,1.5,3.4,5.4,2.7,6.8c-2.4,4.7,1.6,7.5,1.9,11.4c-1.5,0.6-3.5,1.4-6,2.4c2.8,2.4,1.9,4.1,0.2,5.8c-1.7,1.7-3.9,3.2-2.4,6.1
	c0,0.1,0,0.3,0,0.3c-4.1,2.9-3.1,8.5-6.2,11.8c-1.8,2-2.9,3.6-1.6,6.5c1.2,2.6,0.5,5-2.3,6.8c-4.4,2.8-8.8,5.7-12.7,9.1
	c-1.9,1.7-3.1,4.5-4,7c-0.2,0.6,1.4,2.5,2.5,3c2.8,1.3,3.3,3.3,3.1,6.2C96.7,197.2,96.9,201.7,96.9,206.6z"/>
<path class="st15" d="M279.4,302.6c31.8,29,63.2,57.7,94.8,86.5c-6.4,0-12.4-0.1-18.4,0c-6.3,0.2-12.5,0.6-18.7,0.9
	c-4.2,0.2-8.5,0.7-12.7,0.6c-1.6,0-3.6-1-4.8-2.1c-4.3-4.1-11.4-5.3-12.7-12.5c-0.2-1.1-1.8-2.1-3-2.8c-2.2-1.3-4.5-2.3-6.7-3.5
	c3.3-5,2.5-9.4-1.7-13.8c-1.2-1.3-1.5-3.7-1.7-5.6c-0.3-3.8-2.3-5.5-5.9-6.2c-10-2.1-14.3-13.3-8.4-21.5c1.8-2.5,2.9-4.5,0.8-7.7
	C277.6,310.9,278.1,310.5,279.4,302.6z"/>
<path class="st7" d="M180.4,177c-2.7,5.3-0.4,7.4,3.4,9.3c1.9,0.9,2.7,2.9,0.5,5c-8.3,7.9-16.4,15.8-24.7,23.7
	c-0.9,0.9-2.5,1.3-3.8,1.4c-3.2,0.2-6.5,0.1-10,0.1c-0.3,1.7-0.6,3.4-1,5.7c-15.1-0.4-30-0.8-44.7-1.1c-1.4-4.1-3.5-6.9-0.1-10.4
	c1.1-1.1-1.1-5-1.3-7.7c-0.4-3.4-0.6-6.9-0.4-10.3c0.2-3.3-0.3-5.7-3.5-7.2c-0.8-0.4-1.5-1.1-1.9-1.4c3.8-0.5,7.6-1.1,11.5-1.6
	c1.6-0.2,3.3,0.1,5,0c3-0.4,6.2-0.6,9.1-1.5c3.3-1,6.4-2.1,9.7,0.2c1,0.7,2.8,0.6,4.2,0.4c7.4-0.9,15-1.1,22.2-3.1
	C162.9,176.1,171.2,178.3,180.4,177z"/>
<path class="st16" d="M251,229.2c-11.5,0.5-22.8,1-34,1.5c-0.4-0.4-0.6-0.5-0.7-0.7c-2.3-5.7-3.6-5.9-7.9-1.3
	c-2.8,3-5.6,5.9-8.6,9.2c-5.3-6.6-10.3-12.5-14.9-18.7c-0.9-1.2-0.7-3.2-1.2-4.9c-0.5-1.8-1.1-3.5-1.8-5.6c3-0.4,3.7-3,3.2-6.1
	c-0.4-2.6-1-5.2-1.5-7.7c-0.4-0.1-0.9-0.3-1.3-0.4c0.9-0.6,1.8-1.2,2.6-1.9c2.9-2.5,2.6-6.2-0.9-7.6c-4.1-1.7-3.9-4.1-2.4-7.1
	c6.3,0,12.3,0,18.3,0c-0.6,6.2-2.5,12.4,4.6,16.2c0.5-0.5,1.2-1.1,1.4-1.3c2.2,1,4.1,1.8,6.9,3.1c-1.7-5.1,1.6-6.8,3.7-7.8
	c1.9-0.9,4.9,0.4,7.4,1c1.5,0.4,2.8,1.5,4.2,2.2c0.4,0.2,1.1,0.3,1.3,0.6c3.6,5.5,8.9,8.3,14.8,10.6c1,0.4,1.8,2.5,2,3.9
	c0.3,2.4,0.9,4.4,3.1,5.8c0.7,0.4,1.4,1.5,1.4,2.3C251.1,219.1,251,224,251,229.2z M198,203c0,2.1,0,3.7,0,4.9
	c1-0.5,1.9-0.9,2.8-1.5c0.6-0.4,1.6-1.1,1.5-1.6c0-0.6-0.9-1.4-1.5-1.7C200,202.8,199.1,203,198,203z"/>
<path class="st17" d="M239,575.7c-0.2-1.4-0.2-2-0.4-2.6c-1.2-4.8-1.2-4.6,3.3-6c1.5-0.5,2.6-2.2,4.1-2.8c1.7-0.8,4-1.8,5.5-1.3
	c9.9,3.6,19.6,7.6,29.4,11.4c2.3,0.9,3.4,2,3.3,4.7c-0.4,7.4-0.3,14.8-0.5,22.2c0,0.2-0.1,0.6,0,0.7c2.7,3.2,1.4,6.2-0.7,9.1
	c-2.8-0.3-6-1.1-9.1-0.8c-2.9,0.3-5.8-0.4-8.3-0.3c-4.9,0.3-8.9-2-13.3-2.7c-6.4-1-12.8-2.5-19.3,0.5c-2.7,1.2-5.7-0.1-7.1-3.4
	c-0.5-1.1-1.5-2.3-2.5-2.9c-2.5-1.4-5.1-2.5-7.9-3.8c0.8-1,1.4-1.7,2-2.4c1.9-2.1,2.1-4.3,0.1-6.5c-1.4-1.5-1.9-2.7,0-4.2
	c2.5-2,2.1-4.2,0.1-6.2c-1.8-1.8-3.1-4.1-1.7-6.1c1-1.4,3.6-2.1,5.6-2.4c4.7-0.7,9.2,0,13,3.1C235.7,573.9,237,574.5,239,575.7z
	 M249.4,588.4c0,1.9,0,3.7,0,6.3c1.6-0.7,3.6-1,4-1.9c0.5-1.2-0.3-2.9-0.6-4.4C251.6,588.4,250.6,588.4,249.4,588.4z"/>
<path class="st9" d="M254.1,410.3c1.1-1.6,2-3.4,3.3-4.8c3.5-3.7,7.1-7.3,10.7-10.9c0.6-0.6,1.4-1,2.1-1.4c2.9-1.8,5.8-3.6,8.6-5.5
	c0.4-0.3,0.7-1.4,0.5-2c-1.1-3.3,1.3-4.8,3.2-6.6c2.5-2.4,5.1-4.8,7.7-7.2c2.1-1.9,4-3,6.3,0c0.7,1,2.5,1.3,3.9,1.6
	c3,0.6,5,2,5.7,5.2c0.3,1.4,1.3,2.6,2.2,4.2c-2.5,2.6-5,5.5-7.8,8.2c-4.8,4.6-8.8,9.5-9.1,16.7c-0.1,1.8-1.8,4.7-3.2,5
	c-5.8,1.3-9.1,5.8-13.6,8.8c-3.5,2.3-6.2,5.2-8.1,9c-0.7,1.3-2.3,2.6-3.8,3c-7,2.2-14.1,4.2-21.2,6c-5.5,1.4-9.8-1-12-6.2
	c-1-2.5-2-4.9-3-7.3c-1.4-3.4-0.5-5.5,2.9-7.3c5.7-3,11.4-6,18.2-4.7c0.6,0.1,1.5-0.1,2-0.5c1.5-1,2.8-2.2,4.2-3.3
	C253.8,410.2,254,410.2,254.1,410.3z"/>
<path class="st18" d="M61.5,294.2c9-0.6,17.8-1,26.5-1.7c2.3-0.2,4.6-1,6.6-2c3.6-1.8,5.7-1.4,7.6,2.1c1.3,2.5,2.4,5,3.6,7.5
	c0.4,0.8,0.7,2,1.2,2.1c4.3,0.9,2.9,4.2,3.2,6.8c0.2,1.4,0.9,3.2,1.9,4c6.4,4.5,7.6,11.7,10.1,18.2c0.2,0.4,0,1.2,0.3,1.4
	c2.4,1.8,3,4.1,1.8,6.6c-1.1,2.3-2.9,4.3-4.6,6.8c-1-1.3-1.5-1.9-2.1-2.6c-0.2,0.3-0.5,0.5-0.5,0.6c2.8,5.4-0.3,10.7-0.2,16.1
	c0,0.5-3.1,1.8-4.5,1.4c-3-0.7-6-1.9-8.6-3.5c-1.9-1.1-3.3-3-4.8-4.6c-1.1-1.2-1.9-2.8-3.1-3.8c-1.9-1.4-4.1-2.8-6,0.8
	c0.5-7.1,3.8-13.8-0.9-20.6c3.3-0.2,5.8-1,8.3,2.2c1.8,2.4,5.2,3.5,8.4,5.5c-0.7-1-1-2-1.7-2.4c-4.6-2.6-7.7-7.9-14.3-7.2
	c-1.6,0.2-3.8-3.2-5.4-5.3c-1.5-1.9-2.4-4.2-3.7-6.3c-0.6-0.9-1.4-2.3-2.2-2.3c-5.2-0.1-6.4-4.4-8.7-7.6
	C67.2,302.5,64.6,298.6,61.5,294.2z"/>
<path class="st19" d="M176.9,295.5c-0.3,0.9-0.6,1.9-0.9,2.7c-2.8,0-5.4,0-8,0c-2.5,0-4.3-0.9-4-3.9c1.4-0.5,2.7-0.9,3.4-1.2
	c-1.7-0.6-4.1-0.8-5.4-2.1c-1.6-1.5-2.6-3.8-3.4-6c-0.4-0.9,0.2-2.1,0.3-3.2c0.2-2.8,0.6-5.3-2.5-7.3c-1.5-1-1.8-3.9-2.6-6
	c-0.3-0.9-0.4-2-1-2.5c-1.6-1.5-1.5-3.1-0.2-4.5c1-1.1,2.4-2.3,3.7-2.4c3.9-0.3,7.8-0.1,11.7-0.1c0,0.3,0.1,0.6,0.1,0.9
	c-0.9,0.7-1.8,1.4-3.3,2.5c7.4,2.7,2.3,8.9,4.3,13.3c1.6,3.3,1.5,7.4,2.3,11.5c2.8-2.4,5.2-4.5,8.4-7.2c0.5,2.4,0.7,3.6,1,5
	c-1.1,0.4-2.1,0.7-3.1,1c0,0.3,0.1,0.5,0.1,0.8c1.3-0.1,2.6-0.2,4.2-0.3c-0.1-1.3-0.3-2.4-0.2-3.4c0.1-1.2,0-2.9,0.7-3.4
	c1.3-0.8,2.5-2.5,4.8-1c1.4,0.9,3.9,0.4,5.8,0.5c0.6,0,1.2-0.2,1.8-0.1c5.1,1.1,9.1-1.3,10.5-6.3c0.1-0.5,0-1.3,0.2-1.4
	c5.9-2.6,7.9-10.2,14.4-11.8c2.7-0.7,5.5-1,8.2-1c9.2-0.1,18.4,0,27.8,0c0,5.8,0,11.1,0,16.9c-1.8,0-3.3,0-4.9,0
	c-0.8,0-2.1-0.3-2.5,0.2c-3.4,4.3-8,2.6-12.2,2.2c-3.1-0.3-4.6,1-5.4,3.5c-0.7,1.9-0.9,3.6-3.6,3.5c-3-0.1-5.8,0.1-7.5-3
	c-1.9-3.5-5.8-3.7-8.2-0.5c-0.4,0.5-1.1,0.9-1.7,0.9c-5.4,0.1-8.3,3.4-10.4,7.7c-1.7,3.5-3.3,7.1-5.2,10.5c-0.4,0.7-1.8,1-2.7,1
	c-3.5-0.1-7-0.6-10.5-0.5c-4.6,0.2-3.8-2.8-3.5-5.7C177.5,295.4,177.2,295.5,176.9,295.5z"/>
<path class="st20" d="M249.9,410.8c-1.2,0.6-2.4,1.5-3.7,1.8c-2.9,0.5-6.3-0.1-8.8,1.1c-4.8,2.1-9.6,4.7-13.5,8
	c-6.5,5.6-12.5,11.9-18.5,18c-1.7,1.7-2.9,1.5-4.9,0.6c-6.1-2.8-9.8-8.1-13.9-12.9c-0.5-0.6-0.5-1.8-0.5-2.7
	c0.1-3.3,0.4-6.7,0.6-10.1c3.8-3.3,7.9-6.8,11.8-10.5c1.1-1,2.3-2.6,2.3-4c0.1-5.7,4.6-7.2,8.5-9.2c4.6-2.3,9.2-4.6,13.8-6.9
	c1.6-0.8,3.2-1.7,4.9-2.5c4.5-2.2,7.3-1,9,4c1.4,4,2.4,8.1,4,12c1.5,3.7,3.4,7.1,5.4,10.6c0.5,0.8,2,1.1,3,1.6
	C249.4,410,249.7,410.4,249.9,410.8z"/>
<path class="st12" d="M297.9,628.9c-0.5-6.9-5.4-11.8-11.6-15.8c-1.4-0.9-2.4-2-0.3-3.6c1.8-1.3,1.4-5.2-0.3-6.9
	c-0.4-0.4-0.7-1.2-0.7-1.8c0-8,0-16,0-24.5c3.8,0.6,6.9,0.8,9.8,1.6c0.9,0.3,1.5,2,2.7,3.8c4.7,0,10.4,0.1,16,0
	c2.4-0.1,3.7,0.5,4.7,3.1c2.3,6,5.3,11.7,7.8,17.6c2.2,5.1,4.1,10.3,6,15.5c0.2,0.6-0.2,1.5-0.5,2.2c-0.6,1.5-1.4,3-2.5,5.2
	c-0.2,0-1.3,0.5-2.4,0.7c-5.4,0.9-10.1,3.3-13.6,7.6c-1.5,1.8-2.8,1.7-4.6,0.7C305.2,632.5,301.9,630.9,297.9,628.9z"/>
<path class="st3" d="M131.2,348.5c-1.2-2.4-2.1-4.2-3-6c0.1-0.1,0.3-0.4,0.4-0.4c5.3-0.4,5.3-0.4,6.4-5.8c1.1-5.8,1.1-5.8,7.1-5.6
	c0.3,0,0.7-0.1,1.8-0.4c-0.6-2-0.7-4.3-1.8-5.9c-1.7-2.6-1.4-5.5,1.6-6.4c3-0.9,6-1.6,9.1-2c3-0.3,6-0.1,9.1-0.1
	c0.3,1.7,0.5,2.7,0.8,4.2c1.2-4.4,1.1-4.2-2.7-5.4c-5-1.6-9.5-0.4-13.9,1.5c-2.5,1-5.3-0.4-5.4-3.3c-0.2-4.8-1.4-8.7-6-11.2
	c-0.8-0.4-1.4-2-1.5-3.1c-0.4-4.6-1.7-8.2-7.6-7.3c0-1.7,0-3,0-4.7c1-0.1,2-0.2,3-0.2c8.7,0.2,17.5,0.3,26.2,0.8
	c1.4,0.1,3,1.2,3.9,2.3c2,2.4,4.5,4.5,5,8c0.1,1,2.9,1.6,4.8,2.6c-0.7,0.9-1.4,1.8-1.7,2.1c1.7,3.8,4.7,7.3,4.6,10.8
	c-0.2,5.8,1.2,12.7-5.1,17.1c-1.1-0.6-2.3-1.3-3.9-2.3c1.6,2.5,2.8,4.5,3.9,6.5c0.3,0.6,0.6,1.9,0.2,2.3c-5,5.5-8.8,12.8-18.3,11.8
	C142.4,348,136.6,348.5,131.2,348.5z"/>
<path class="st21" d="M153.4,257.5c0.8-3.6,1.5-7.2,2.3-10.8c0.4-1.8,0.9-3.5,1.5-5.7c-3.2-0.2-5.3-0.3-7.7-0.4c0-2.9,0-5.8,0-8.6
	c4.3-1.7,4.5-3.3,0.6-6.7c-2.3-2-5-3.6-3-7.7c2.8,0,5.8,0.2,8.8-0.1c1.7-0.2,3.8-0.8,5-1.9c6.1-5.6,11.9-11.4,17.9-17.1
	c0.9-0.8,1.8-1.6,2.6-2.3c4,2.4,2.7,6,2.5,9.3c0,0.6-1.9,1-2.4,1.8c-0.6,1.1-1.2,3.6-1,3.6c2.6,1.1,1.8,3.4,2.4,5.3
	c0.5,1.8,1,3.7,2.1,5.2c3.9,5.1,8,10,12.1,15c2.1,2.6,1.6,4.6-1.5,5.8c-1.7,0.7-3.7,0.6-5.2,1.6c-2.1,1.4-4.9,3.2-5.4,5.3
	c-1.4,5.8-5.8,7.7-10.3,8.3C167.8,258.1,160.9,257.5,153.4,257.5z M159.6,222.3c0.8,2-1.8,4.8,1.8,5.6c0.8,0.2,2.8-1.4,2.8-2.1
	C164.1,223.5,163.9,220.6,159.6,222.3z"/>
<path class="st22" d="M231.3,286.1c0.4-1.4,0.6-2.4,0.9-3.5c0.7-2.4,2-3.6,4.7-3.3c2.3,0.3,4.6,0.3,6.9,0.3c1,0,2.6,0.1,3.1-0.6
	c2.6-3.3,5.8-2,9.2-1.8c-1.3,6.7,5.5,7.6,7.9,11.9c-5.1,5.6-10.2,11.4-15.6,16.9c-2.4,2.4-5.4,4.4-8.3,6.1c-1.7,1-3.8,1.7-5.8,1.8
	c-3.7,0.3-7.6,0.7-11.3-0.1c-6.3-1.3-12.4-2.1-18.7,0c-1.3,0.4-3-0.3-4.7-0.6c-0.2-2.4-0.5-4.6-0.7-6.9c-0.1-0.6,0-1.5-0.4-1.7
	c-4.6-3.2-2-6.7-0.4-10.1c1.1-2.1,2.2-4.3,3.7-6.1c2.2-2.6,4.5-5.2,8.5-4.9c0.9,0.1,2.1-0.5,2.7-1.2c2-2.4,3.9-2.3,5.8,0.3
	c1.5,2.1,3.1,3.9,6.2,3.4C227.2,285.9,229.3,286.1,231.3,286.1z M208.6,294.1c-1.6,0-2.7,0-3.8,0c0,2,0,3.7,0,5.5c1.2,0,2.2,0,3.6,0
	c-1.4-0.5-2.2-0.8-3.8-1.4c1.4-0.6,2.1-0.9,2.8-1.3c-0.7-0.5-1.4-0.9-2.7-1.7C206.3,294.8,207.3,294.5,208.6,294.1z"/>
<path class="st4" d="M186.4,269.6c1.7,6.8-3.1,8.4-7.4,10.4c-2.2,1-4.3,2.4-6.6,3.7c-3.8-6.2-0.6-14.5-4.3-22
	c0.8-2.3,3.5-2.5,6.5-3.1c5.2-1,10.1-2.9,11.6-9.4c0.4-1.9,3.6-3.5,5.8-4.7c2.4-1.3,5.1-2,8.5-3.3c0.1,1.9,0.3,4,0.4,6.1
	c0.1,2.5-1.4,3.2-3.5,4.4c-3.8,2.3-6.8,6-10.1,9.1c0.4,0.5,0.9,0.9,1.3,1.4c1.4-1.6,2.7-3.3,4.1-4.8c4.4-4.6,9.4-7.5,16.2-7.6
	c3.2-0.1,6.6-2.5,9.6-4.4c4.9-3,4.7-3,9.2,0.5c1.6,1.2,3.8,2.2,5.8,2.3c7.5,0.3,15,0.1,22.7,0.1c0,3.4,0,6.2,0,9.3
	c-1,0.1-2.1,0.2-3.1,0.2c-7.5-0.1-15.1-0.5-22.6-0.3c-5.4,0.2-10.9,0.7-15.8,3.6c-0.9,0.5-1.4,1.6-2.2,2.3c-2.2,2.2-4.5,4.2-6.7,6.5
	c-0.8,0.8-1.5,1.8-1.8,2.8c-1,4.4-4.4,6.4-8.9,5.4c-1.1-0.2-2.3,0.4-3.5,0.5c-3.2,0.5-4.5-0.9-4-4.1c0.2-1.4,0-2.9,0-4.4
	C187.3,269.9,186.8,269.8,186.4,269.6z"/>
<path class="st23" d="M278.5,460.1c1.1,3.7,0.5,7.5,4.8,8.9c1.7,0.6,0.9,6.8-1.1,7.4c-2.6,0.8-2.4,2.4-2.3,4.5c0.2,3,0,6-0.1,9
	c0,0.1-0.1,0.2-0.1,0.4c-0.2,3.2,2.9,6.1,0.6,9.8c-1.7,2.8-2.3,6.3-3.6,10c0.3-0.2,0.1,0-0.1,0.1c-10.3,0.2-20.5,0.4-30.8,0.7
	c-3,0.1-4.4-1.3-5.2-3.8c-0.5-1.7-1.3-3.3-2-5.3c4.4-4.8,8.8-9.9,13.6-14.7c2.9-2.9,4-6.1,4-10c0.2-9.3,0.3-9.4,9.4-9.4
	c3,0,5.4-0.7,7.5-2.8C274.7,463.1,276.5,461.8,278.5,460.1z M268.6,496.9c-1.7,0.5-2.7,0.8-3.7,1.1c0.7,1.7,1.4,3.4,2.1,5.1
	c0.3,0,0.7-0.1,1-0.1C268.2,501.3,268.4,499.5,268.6,496.9z"/>
<path class="st24" d="M276.4,383.2c2.4,1.6,2.5,3,0.1,4.4c-8,4.7-14.2,11.6-20.9,17.9c-1.2,1.1-1.9,2.7-2.9,4.1
	c-6.6-1.9-8.5-8-10.9-13.5c-2.4-5.6-4.2-11.4-6.4-17.2c0.8-0.3,2.4-1,4.1-1.7c-0.3-0.3-0.6-0.6-0.9-0.9c1.1-1.6,2-3.4,3.3-4.8
	c0.9-1.1,2.3-1.7,3.5-2.5c3.9-2.6,7.6-4,12.4-1.1c7.1,4.3,15.5,1.4,19-5.9c1.1-2.3,2.4-2.4,4.3-1.6c1.2,0.6,2.4,1.2,3.5,1.9
	c7,4.1,7.2,5.9,1.4,11.5C283,376.9,279.8,379.9,276.4,383.2z"/>
<path class="st25" d="M108.5,238.1c-1.3,5.5,1.2,11.5-2.8,16.8c1.9,3.1,3.2,7.3,6,9.4c2.7,2,7.1,1.7,11,2.5c-2.9,3.6-2.8,6.6-0.3,10
	c0.6,0.8,1.1,1.6,1.5,2.4c2.9,5.8,0.8,10.9-2.2,15.9c-0.4,0.6-0.5,1.3-0.8,2c-0.8,2.2-1.9,3.7-4.6,3.9c-1.5,0.1-2.9,1-4.5,1.5
	c-5-1.8-5.7-7.3-8.4-11.2c-0.9-1.3-1.9-2.7-3.2-3.7c-5.7-4.3-9.2-10.2-12-16.6c-0.4-0.9-0.4-2.6,0.2-3.1c2.3-2,2.7-4.5,3.4-7.4
	c0.7-2.9,0.6-5-0.5-7.7c-0.9-2.4-1.1-5.2-0.9-7.8c0.1-1.8,1-3.7,3.9-2.9c1.1,0.3,2.9-0.8,4-1.7C101.2,238,104.2,237,108.5,238.1z"/>
<path class="st3" d="M181.9,457.6c-0.6-0.7-1.7-1.3-1.7-2c-0.1-4.5-3.5-6.6-6.5-9c-0.7-0.6-2.2-1.1-2.2-1.7
	c-0.1-5.4-5.2-7.7-7.2-11.9c-0.3-0.7,0-2.3,0.5-2.6c2.5-1.8,5.3-3.3,7.2-4.5c2.2,0.6,3.8,1.5,5.2,1.3c6.4-0.9,9.9,2.1,13.2,7.3
	c1.9,2.9,5.7,4.6,8.7,6.8c1.5,1.1,3.1,1.9,4.4,3.2c5.3,5.2,10.4,10.5,15.6,15.8c3,3.1,1.9,9.1-1.7,11.4c-2.6,1.7-4.8,4.1-7.9,6.7
	c-1.4-1.3-3.4-3.2-5.6-4.8c-1.1-0.8-2.7-1.2-4.1-1.2c-1.2,0-2.5,0.8-3.9,1.3c-3.4-4.7-6.7-9.5-10.3-14.1
	C184.7,458.6,183,458.2,181.9,457.6c4.9,0.5,5,0.4,4.2-5.5c-1.2,0-2.4,0-3.7,0C182.2,454.1,182,455.9,181.9,457.6z"/>
<path class="st11" d="M153.5,252.1c-2.5-0.8-4.5-1.5-6.5-2c-1.4-0.3-2.9-0.5-4.3-0.5c-8.8,0.3-17.5,0.6-26.2,0.9
	c-2.3,0.1-4.6,0-7.1,0c0-4.9,0-9.4,0-14c-1.2-0.1-2.2-0.4-3-0.3c-4.1,0.8-5.4-1.3-5.6-4.9c-0.2-3.1-0.5-6.3-0.8-9.8
	c1.1,0,2-0.1,2.9,0c6.5,0.5,13,1.2,19.5,1.5c6.5,0.3,13.1,0.1,19.6,0.1c4.7,0,7.3,1.6,9.9,6.3c-1.1,0.4-2.2,0.8-3.6,1.3
	c0,1.5,0,3.2,0,4.9c-0.1,5.7-0.1,5.6,5.6,6.5c0.8,0.1,1.8,1.6,1.9,2.5c0.1,1-0.9,2.1-1.2,3.2C153.9,248.9,153.9,250,153.5,252.1z"/>
<path class="st26" d="M184.4,426.6c-4-1.3-8.6,2-10.8-3.6c-3.3,2.2-6.5,4.5-9.8,6.8c-0.8-1.2-1.4-1.8-1.8-2.5
	c-4.1-7.6-11.8-10.7-18.4-15.2c-0.7-0.5-1.4-1.2-2-1.8c-2.1-2.1-4.2-4.2-6.1-6.4c-0.9-1.1-1.8-2.6-2-3.9c-0.3-2.9-0.1-5.8-0.1-8.3
	c0.9-0.5,1.1-0.7,1.3-0.7c10.5-0.3,21.1-0.6,31.6-0.9c2-0.1,3.2,0.4,4.2,2.4c1,2.1,2.8,3.7,4.6,6c-5.7,4.4-2,9.7,0.2,15
	c0.1,0,0.4,0.1,0.5,0c2-1.3,3.8-3.2,6.5-1.7c2.8,1.5,2,4.1,2,6.5C184.4,420.7,184.4,423.2,184.4,426.6z"/>
<path class="st27" d="M128.5,285.4c-2.8-5.3-5.2-9.9-7.6-14.6c1.2-1.1,2.3-2.1,3.3-3c-1.1-2.6-2.7-3.5-5.4-3.2
	c-4.3,0.4-7.7-1-9.4-5.5c-0.5-1.5-1.4-2.8-2.1-4c0.9-3.2,3.1-3.6,6-3.5c7.4,0.3,14.8,0.4,22.2,0.4c2.2,0,4.4-0.8,6.7-0.9
	c1.4-0.1,2.8,0.6,4.3,0.8c1.7,0.3,3.5,0.6,6.1,1.1c-0.4,2.7-0.5,5.6-1.4,8.1c-0.8,2.1-1.1,3.5,0.3,5.6c1.4,2,1.8,4.7,2.7,7.1
	c0.1,0.3,0.2,0.8,0.4,1c4.5,2.7,3,6.7,2.4,10.6C147.2,285.4,137.5,285.4,128.5,285.4z"/>
<path class="st28" d="M35.5,60.5c11.7,0,23.2,0,34.5,0c1.6,4.1,0.2,6.5-3.1,8.1c-1,0.5-1.9,1-2.9,1.5c-3.1,1.8-3.4,3.8-2.2,7.1
	c0.7,1.8,1.1,4.9,0.1,6.1c-2.8,3.3-1.1,6.5-0.4,9.6c0.5,2.1,2,4-0.6,5.6c-0.2,0.1,0.1,1.1,0.2,1.6c0.2,1.8,0.5,3.5,0.7,5.6
	c-2,0-3.6,0-5.4,0c0-2,0-3.9,0-6.3c-5.2,0-10.2,0-14.6,0c-1.7-6.6-3.3-12.6-4.9-18.6c-0.3-0.9-1-2.3-1.6-2.4c-3.1-0.3-3-2.4-2.6-4.5
	C33.6,69.4,34.6,64.9,35.5,60.5z M47.9,67c-0.9,1.5-1.8,2.3-1.8,3.1c0,0.8,0.9,1.7,1.4,2.5c0.8-0.8,2-1.4,2.2-2.3
	C49.8,69.6,48.8,68.6,47.9,67z"/>
<path class="st26" d="M168.1,303.3c2.9-5.3,3.5-5.4,8.4-2c0.7,0.5,1.8,0.6,2.7,0.7c4.2,0.3,8.5,0.5,12.7,0.8c4,0.2,5.4,1.4,5.7,5.4
	c0.5,6.1,0.9,12.2,1.1,18.3c0,1.2-1.1,2.7-2.1,3.6c-4.2,3.9-9.2,5.1-14.8,4.5c-4.5-0.5-7.4,2.5-10.4,5.2c-3.4,3.1-6.9,6-10.6,8.8
	c-1.1,0.8-2.6,1-4,1.5c-0.2-0.3-0.3-0.6-0.5-0.9c0.7-0.8,1.4-1.5,2.1-2.3c2.7-2.8,5.6-5.5,8.2-8.4c0.7-0.8,1.4-2.7,0.9-3.5
	c-1.6-2.9,0.2-4.3,1.8-6.2c1-1.1,1.9-2.6,2.3-4.1c0.6-2.5,0.4-5.1,0.9-7.6C173.8,311.7,171.4,307.4,168.1,303.3z"/>
<path class="st1" d="M256.3,230.5c0,5.9,0,11.2,0,16.7c-8.2,0-16.3,0.2-24.4-0.2c-1.8-0.1-3.6-2.2-5.3-3.6c-2.2-1.8-4.2-2.6-6.7-0.4
	c-1.2,1.1-2.9,1.7-4.2,2.9c-4,3.6-8.6,2.9-13.4,2.6c-0.4-3.3,1.6-7.2-1.1-8.4c3.7-4.4,7.6-8.9,12-14c1,2.2,1.6,3.8,2.5,5.9
	C228.8,231.5,242.4,231,256.3,230.5z"/>
<path class="st29" d="M142.7,328.8c-3.5,0-5.9,0-8.5,0c-0.4,3.7-0.7,7.3-1.1,10.9c-2.5,0.5-5,1-7.8,1.5c2.5-6-2-10.4-3.5-15.6
	c-0.5-1.8-1.3-3.6-2.3-5.3c-1.3-2.3-2.9-4.5-4.4-6.6c-1.1-1.6-3.1-2.9-3.5-4.6c-0.8-4,0.6-5.9,5.4-6.6c3.2-0.4,4.1-2.3,5.2-4.7
	c0.6-1.4,1.4-2.9,2.5-3.8c1-0.8,2.8-1.3,3.8-0.9c1.2,0.5,2.6,2.1,2.6,3.3c0.2,3.6,1.5,5.9,4.5,8.1c1.8,1.3,2.5,4.2,3.4,6.5
	c0.7,1.8,1,3.8,1.4,5.8c0,0.1,0.1,0.3,0.1,0.3C137.2,321.3,140.1,324.8,142.7,328.8z"/>
<path class="st28" d="M275.1,306.1c0.6,0.2,1.4,0.4,2.3,0.6c-1.1,4.4,1.1,7.7,2.8,11.3c0.3,0.5-0.2,1.6-0.6,2.3
	c-1.6,2.9-3.4,5.7-5.3,9.1c-4.8-1-10.3-1.4-14.4-5.9c-0.7-0.8-1.9-1.5-3-1.7c-3.2-0.7-5.1-3.6-4.1-6.7c0.7-2.1,1-4.3,1.6-6.5
	c0.6-2,1.3-4,2.3-6.9c-1.1,1.3-1.6,1.8-2.1,2.4c-0.2-0.1-0.5-0.2-0.7-0.3c0.2-0.8,0.2-1.8,0.7-2.4c3.4-3.7,7-7.4,10.7-11.3
	c4.3,3.9,8.4,7.5,13,11.6c-1.4,0.2-2.4,0.3-3.3,0.4C275.1,303.3,275.1,304.5,275.1,306.1z"/>
<path class="st30" d="M136.7,360.9c0,2,0,3.4,0,4.9c-3.9-5.2-10.2-6.9-15.6-10.4c3.2-1.9,5.6-3.6,8.3-5c1.1-0.6,2.5-0.7,3.8-0.7
	c5.5,0,10.9,0.1,16.4,0.3c2.3,0.1,4.6-0.7,7.1,1.1c1.2,0.9,4.4-0.6,6.5-1.5c1.4-0.6,2.4-2.1,4.5-2.9c-0.3,5.3,0.4,10.8-1.2,15.7
	c-1,2.9-5.3,5.1-8.5,6.6c-3.3,1.5-7.2,2.1-10.9,2.5c-1,0.1-2.5-1.3-3.4-2.2c-1.5-1.4-1.4-4.5-4.7-4
	C138.3,365.2,137.6,362.8,136.7,360.9z"/>
<path class="st9" d="M132.1,389.8c0.4,4.8,0.8,9.2,1.2,13.7c0,0.6-0.2,1.6-0.6,1.9c-2.9,2.3-6,4.5-9,6.7c-0.5,0.4-1.4,0.4-1.9,0.5
	c-3.1-3.9-3-8-2.7-12.7c0.3-5.2,1.5-11.2-4-15.4c-1.1-0.8-0.5-4.2-0.1-6.3c1-5.2,1.1-5.1,4.5-4.5c3.1,3.2,5.1,5.6,7.5,7.5
	c3.3,2.7,7,4.9,11.3,7.9C135.8,389.3,134.4,389.5,132.1,389.8z"/>
<path class="st4" d="M160.9,426.7c-3.6,2.6-6.5,4.6-9.5,6.8c-0.8-1.9-1.4-3.3-2-4.7c-1.9-3.9-3.1-4.4-6.7-2.2
	c-2.8,1.7-4.8,1.8-7.2-0.7c-1.3-1.4-3.5-2.1-5.4-2.9c-4-1.7-7.5-4-8.8-8.3c4.2-2.9,8.3-5.5,12.1-8.5c1.7-1.3,2.7-1.3,3.9,0.3
	c0.4,0.5,0.9,0.9,1.2,1.4c3.2,5.4,9,7.6,13.8,11C155.3,421.2,157.8,423.9,160.9,426.7z"/>
<path class="st1" d="M368.5,643.3c-2.5,4.1-4.8,8-7.3,11.8c-0.5,0.8-1.8,1-2.8,1.4c-2.6,0.9-5.3,1.8-8.7,3c-1.5-0.8-3.9-2.2-6.8-3.8
	c4-4.3,3.5-8.5-2.4-12.4C350.7,643.3,359.4,643.3,368.5,643.3z"/>
<path class="st31" d="M119.3,372.5c-3.6-0.1-5-1.7-4.6-5.8c0.1-0.8,1.9-1.9,3-2.1c2.5-0.3,5.2,2.4,5.2,4.9
	C122.9,372.1,121.3,372.7,119.3,372.5z"/>
<path class="st4" d="M125.9,351.1c-1.7,0.8-3.3,1.7-6,3c0.3-2.8,0.5-4.7,0.7-6.6c1.9,0.7,3.8,1.4,5.7,2.1
	C126.2,350.1,126.1,350.6,125.9,351.1z"/>
<path class="st27" d="M123,373.4c2.7,2.6,7.2,3.1,7.4,8.6C127.1,379.3,122.7,378.7,123,373.4z"/>
<path class="st32" d="M335.9,676.8c5.9-2.5,12.9,1.9,16.1,10.4c-2.4-0.1-4.4-0.2-6.4-0.4c-2.7-0.3-3.5-1.8-3.4-4.5
	c0-0.9-1.4-2.1-2.3-2.9C338.8,678.4,337.4,677.7,335.9,676.8z"/>
<path d="M442.2,576.9c0.4,1.8,0.7,3.4,1.1,5.4c-1.7,0.2-2.9,0.3-4.4,0.4c0-2,0-3.8,0-5.8C439.9,576.9,441,576.9,442.2,576.9z"/>
<path d="M474.8,656.5c-2-3.4-2.7-3.4-4.7-0.5c0-1.9,0-3.5,0-5.1C474.3,649.7,474.4,649.8,474.8,656.5z"/>
<path d="M378.9,661.1c-1.4-0.3-2.8-0.6-4.1-0.9c0.4-1.5,0.5-3.1,1.3-4.3c0.3-0.4,2.7-0.2,3.3,0.5c1.4,1.5,1.5,3.4-0.6,4.8
	c0.2-0.8,0.8-1.6,0.6-2.3c-0.2-0.9-0.8-2-1.5-2.5c-0.4-0.2-2,0.5-2.1,1c-0.2,1,0,2.3,0.5,3.1C376.7,661,378,660.9,378.9,661.1z"/>
<path d="M209.1,324c-1.8,0-3.2,0-4.7,0c0.6-1.5,1.3-3.2,2.4-5.8C207.8,320.9,208.5,322.6,209.1,324z"/>
<path d="M28.7,169.2c0,2.7,0,4,0,5.4c-0.9-0.6-1.7-1.6-2.5-1.6c-0.7,0-1.4,1-2,1.6c0-1.2,0-2.8,0-4.5
	C25.5,172.8,26.9,173.4,28.7,169.2z"/>
<path d="M216.1,535.5c1,1.3,1.9,2.6,2.9,3.9c-1.1,0.6-2.1,1.2-3.7,2.2c0-2.5,0-4,0-5.5C215.6,535.9,215.9,535.7,216.1,535.5z"/>
<path d="M209.7,535.8c1.4,0.2,2.8,0.3,4.2,0.5c-0.2,1.4-0.1,3.2-0.9,4.2c-0.5,0.6-3,0.3-3.7-0.4c-1.4-1.3-1.6-3.2,0.6-4.4
	c-0.2,0.7-0.8,1.5-0.5,2c0.4,1,1.1,1.9,2,2.5c0.2,0.2,2-1,1.9-1.5c-0.1-1-0.7-2.1-1.4-2.9C211.5,535.5,210.4,535.8,209.7,535.8z"/>
<path d="M198,203c1.1,0,2.1-0.2,2.8,0.1c0.7,0.3,1.5,1.1,1.5,1.7c0,0.5-0.9,1.2-1.5,1.6c-0.8,0.6-1.8,1-2.8,1.5
	C198,206.7,198,205.1,198,203z"/>
<path d="M249.4,588.4c1.2,0,2.1,0,3.4,0c0.3,1.5,1.1,3.2,0.6,4.4c-0.3,0.9-2.3,1.2-4,1.9C249.4,592.1,249.4,590.2,249.4,588.4z"/>
<path d="M159.6,222.3c4.3-1.7,4.5,1.2,4.6,3.5c0,0.7-2,2.3-2.8,2.1C157.8,227.1,160.4,224.2,159.6,222.3z"/>
<path d="M208.6,294.1c-1.4,0.4-2.3,0.7-3.9,1.1c1.2,0.8,1.9,1.3,2.7,1.7c-0.8,0.3-1.4,0.6-2.8,1.3c1.6,0.6,2.5,0.9,3.8,1.4
	c-1.5,0-2.5,0-3.6,0c0-1.8,0-3.6,0-5.5C206,294.1,207,294.1,208.6,294.1z"/>
<path d="M268.6,496.9c-0.2,2.5-0.4,4.3-0.5,6.1c-0.3,0-0.7,0.1-1,0.1c-0.7-1.7-1.4-3.4-2.1-5.1C265.9,497.8,266.9,497.5,268.6,496.9
	z"/>
<path d="M181.9,457.6c0.1-1.8,0.3-3.5,0.4-5.5c1.3,0,2.5,0,3.7,0C186.9,458.1,186.8,458.2,181.9,457.6
	C181.8,457.5,181.9,457.6,181.9,457.6z"/>
<path class="st32" d="M47.9,67c0.9,1.6,1.9,2.6,1.8,3.3c-0.3,0.9-1.4,1.6-2.2,2.3c-0.5-0.8-1.4-1.7-1.4-2.5
	C46,69.3,46.9,68.5,47.9,67z"/>
<path class="st32" d="M378.9,661.1c-0.9-0.2-2.2-0.1-2.6-0.6c-0.6-0.8-0.8-2.1-0.5-3.1c0.1-0.5,1.8-1.2,2.1-1
	c0.7,0.5,1.3,1.6,1.5,2.5c0.1,0.7-0.4,1.5-0.6,2.3C378.8,661.2,378.9,661.1,378.9,661.1z"/>
<path class="st32" d="M209.7,535.8c0.7,0,1.8-0.3,2.1,0c0.7,0.8,1.3,1.9,1.4,2.9c0,0.5-1.7,1.6-1.9,1.5c-0.8-0.6-1.6-1.5-2-2.5
	c-0.2-0.5,0.3-1.3,0.5-2C209.8,535.7,209.7,535.8,209.7,535.8z"/>
</svg>
